<svg width="1200" height="630" viewBox="0 0 1200 630" fill="none" xmlns="http://www.w3.org/2000/svg">
<g clip-path="url(#clip0_2950_35649)">
<rect width="1200" height="630" fill="url(#paint0_linear_2950_35649)"/>
<g style="mix-blend-mode:soft-light">
<rect x="1261.39" y="-82.8828" width="98.2764" height="670.889" transform="rotate(45 1261.39 -82.8828)" fill="url(#paint1_linear_2950_35649)"/>
</g>
<g style="mix-blend-mode:soft-light">
<rect x="1207.89" y="-94" width="98.2764" height="415.434" transform="rotate(45 1207.89 -94)" fill="url(#paint2_linear_2950_35649)"/>
</g>
<path d="M1199.12 522.763C1134.75 511.911 1031.27 504.887 914.588 504.887C797.852 504.887 694.422 511.911 630 522.763V574.963V615.627H1199.58V522.763H1199.12Z" fill="white"/>
<path opacity="0.1" d="M1199.12 522.761C1191.52 521.505 1183.3 520.248 1174.62 519.106C1174.81 520.058 1174.9 521.029 1174.9 522.019C1174.9 555.486 1058.45 582.671 914.76 582.671C771.123 582.671 654.672 555.486 654.672 522.019C654.672 521.029 654.767 520.039 654.958 519.049C646.106 520.191 637.767 521.448 630 522.761V574.961V615.625H1199.58V522.761H1199.12Z" fill="#001627"/>
<path d="M1199.92 616.142C1135.56 611.173 1032.07 607.918 915.389 607.918C798.653 607.918 695.223 611.173 630.801 616.142V640.243V642.071H1200.38V616.142H1199.92Z" fill="#B3C1C6"/>
<path d="M780.484 510.257L761.352 547.551L762.037 553.148L1046.91 555.604V548.179L1027.04 509.629L780.484 510.257Z" fill="#414074"/>
<path d="M761.352 547.553L762.037 553.15L1046.91 555.605V548.181L761.352 547.553Z" fill="#2D2D51"/>
<path d="M772.433 320.417L1044.57 317.79L1029.49 494.837L777.744 489.868L767.978 315.277" fill="#2D2D51"/>
<path d="M768.435 315.221L767.978 315.278L777.744 483.929L1029.49 488.898L1044.57 317.791L768.435 315.221Z" fill="#414074"/>
<path d="M778.601 321.963L1033.89 324.247L1020.01 482.162L787.625 477.593L778.601 321.963Z" fill="white"/>
<g opacity="0.5">
<path d="M1012.76 472.503H831.033V349.312H1012.76V472.503Z" fill="white" stroke="#888CF0" stroke-width="1.8"/>
<path d="M845.768 363.132H836.345V359.02H845.768V363.132Z" fill="#888CF0"/>
<path d="M845.768 370.958H836.345V366.846H845.768V370.958Z" fill="#888CF0"/>
<path d="M845.768 378.727H836.345V374.672H845.768V378.727Z" fill="#888CF0"/>
<path d="M845.768 386.547H836.345V382.492H845.768V386.547Z" fill="#888CF0"/>
<path d="M845.768 394.372H836.345V390.26H845.768V394.372Z" fill="#888CF0"/>
<path d="M845.768 402.198H836.345V398.086H845.768V402.198Z" fill="#888CF0"/>
<path d="M845.768 409.969H836.345V405.914H845.768V409.969Z" fill="#888CF0"/>
<path d="M845.768 417.787H836.345V413.732H845.768V417.787Z" fill="#888CF0"/>
<path d="M845.768 425.614H836.345V421.502H845.768V425.614Z" fill="#888CF0"/>
<path d="M845.768 433.44H836.345V429.328H845.768V433.44Z" fill="#888CF0"/>
<path d="M845.768 441.209H836.345V437.154H845.768V441.209Z" fill="#888CF0"/>
<path d="M845.768 449.028H836.345V444.973H845.768V449.028Z" fill="#888CF0"/>
<path d="M845.768 456.854H836.345V452.742H845.768V456.854Z" fill="#888CF0"/>
<path d="M845.768 464.619H836.345V460.564H845.768V464.619Z" fill="#888CF0"/>
<path d="M884.261 363.132H867.813V359.02H884.261V363.132Z" fill="#FFC979"/>
<path d="M966.106 363.132H888.663V359.02H966.106V363.132Z" fill="#888CF0"/>
<path d="M881.979 370.958H861.99V366.846H881.979V370.958Z" fill="#FFC979"/>
<path d="M973.415 370.958H886.891V366.846H973.415V370.958Z" fill="#888CF0"/>
<path d="M910.305 378.727H882.092V374.672H910.305V378.727Z" fill="#FFC979"/>
<path d="M982.895 378.727H914.361V374.672H982.895V378.727Z" fill="#888CF0"/>
<path d="M923.841 386.547H896.77V382.492H923.841V386.547Z" fill="#FFC979"/>
<path d="M997.684 386.547H929.036V382.492H997.684V386.547Z" fill="#888CF0"/>
<path d="M889.401 394.372H870.04V390.26H889.401V394.372Z" fill="#FFC979"/>
<path d="M972.844 394.372H894.201V390.26H972.844V394.372Z" fill="#888CF0"/>
<path d="M878.207 402.198H861.758V398.086H878.207V402.198Z" fill="#FFC979"/>
<path d="M966.105 402.198H882.608V398.086H966.105V402.198Z" fill="#888CF0"/>
<path d="M924.068 409.969H899.91V405.914H924.068V409.969Z" fill="#FFC979"/>
<path d="M993.688 409.969H929.495V405.914H993.688V409.969Z" fill="#888CF0"/>
<path d="M899.566 417.787H871.295V413.732H899.566V417.787Z" fill="#FFC979"/>
<path d="M979.524 417.787H904.25V413.732H979.524V417.787Z" fill="#888CF0"/>
<path d="M936.177 425.614H884.433V421.502H936.177V425.614Z" fill="#FFC979"/>
<path d="M1004.08 425.614H940.919V421.502H1004.08V425.614Z" fill="#888CF0"/>
<path d="M919.668 433.44H881.46V429.328H919.668V433.44Z" fill="#FFC979"/>
<path d="M988.951 433.44H926.128V429.328H988.951V433.44Z" fill="#888CF0"/>
<path d="M908.989 441.209H871.295V437.154H908.989V441.209Z" fill="#FFC979"/>
<path d="M982.267 441.209H913.676V437.154H982.267V441.209Z" fill="#888CF0"/>
<path d="M895.684 449.028H869.812V444.973H895.684V449.028Z" fill="#FFC979"/>
<path d="M972.158 449.028H901.396V444.973H972.158V449.028Z" fill="#888CF0"/>
<path d="M887.062 456.854H862.332V452.742H887.062V456.854Z" fill="#FFC979"/>
<path d="M986.947 456.854H891.228V452.742H986.947V456.854Z" fill="#888CF0"/>
<path d="M931.835 464.619H903.565V460.564H931.835V464.619Z" fill="#FFC979"/>
<path d="M1004.43 464.619H937.206V460.564H1004.43V464.619Z" fill="#888CF0"/>
<path d="M1012.76 349.715H831.033V354.626H1012.76V349.715Z" fill="#888CF0" stroke="#888CF0" stroke-width="0.4"/>
</g>
<path d="M793.336 457.655H975.066V334.465H793.336V457.655Z" fill="white"/>
<g opacity="0.5">
<path d="M975.064 457.657H793.334V334.467H975.064V457.657Z" fill="white" stroke="#888CF0" stroke-width="1.8"/>
<path d="M808.069 348.286H798.646V344.174H808.069V348.286Z" fill="#888CF0"/>
<path d="M808.069 356.112H798.646V352H808.069V356.112Z" fill="#888CF0"/>
<path d="M808.069 363.881H798.646V359.826H808.069V363.881Z" fill="#888CF0"/>
<path d="M808.069 371.701H798.646V367.646H808.069V371.701Z" fill="#888CF0"/>
<path d="M808.069 379.526H798.646V375.414H808.069V379.526Z" fill="#888CF0"/>
<path d="M808.069 387.352H798.646V383.24H808.069V387.352Z" fill="#888CF0"/>
<path d="M808.069 395.123H798.646V391.068H808.069V395.123Z" fill="#888CF0"/>
<path d="M808.069 402.942H798.646V398.887H808.069V402.942Z" fill="#888CF0"/>
<path d="M808.069 410.768H798.646V406.656H808.069V410.768Z" fill="#888CF0"/>
<path d="M808.069 418.594H798.646V414.482H808.069V418.594Z" fill="#888CF0"/>
<path d="M808.069 426.364H798.646V422.309H808.069V426.364Z" fill="#888CF0"/>
<path d="M808.069 434.182H798.646V430.127H808.069V434.182Z" fill="#888CF0"/>
<path d="M808.069 442.009H798.646V437.896H808.069V442.009Z" fill="#888CF0"/>
<path d="M808.069 449.774H798.646V445.719H808.069V449.774Z" fill="#888CF0"/>
<path d="M846.562 348.286H830.114V344.174H846.562V348.286Z" fill="#FFC979"/>
<path d="M928.407 348.286H850.963V344.174H928.407V348.286Z" fill="#888CF0"/>
<path d="M844.279 356.112H824.29V352H844.279V356.112Z" fill="#FFC979"/>
<path d="M935.716 356.112H849.191V352H935.716V356.112Z" fill="#888CF0"/>
<path d="M872.606 363.881H844.392V359.826H872.606V363.881Z" fill="#FFC979"/>
<path d="M945.196 363.881H876.662V359.826H945.196V363.881Z" fill="#888CF0"/>
<path d="M886.142 371.701H859.071V367.646H886.142V371.701Z" fill="#FFC979"/>
<path d="M959.985 371.701H891.337V367.646H959.985V371.701Z" fill="#888CF0"/>
<path d="M851.701 379.526H832.34V375.414H851.701V379.526Z" fill="#FFC979"/>
<path d="M935.145 379.526H856.502V375.414H935.145V379.526Z" fill="#888CF0"/>
<path d="M840.507 387.352H824.059V383.24H840.507V387.352Z" fill="#FFC979"/>
<path d="M928.406 387.352H844.908V383.24H928.406V387.352Z" fill="#888CF0"/>
<path d="M886.368 395.123H862.21V391.068H886.368V395.123Z" fill="#FFC979"/>
<path d="M955.989 395.123H891.795V391.068H955.989V395.123Z" fill="#888CF0"/>
<path d="M861.866 402.942H833.596V398.887H861.866V402.942Z" fill="#FFC979"/>
<path d="M941.824 402.942H866.551V398.887H941.824V402.942Z" fill="#888CF0"/>
<path d="M898.477 410.768H846.734V406.656H898.477V410.768Z" fill="#FFC979"/>
<path d="M966.385 410.768H903.219V406.656H966.385V410.768Z" fill="#888CF0"/>
<path d="M881.968 418.594H843.761V414.482H881.968V418.594Z" fill="#FFC979"/>
<path d="M951.252 418.594H888.429V414.482H951.252V418.594Z" fill="#888CF0"/>
<path d="M871.29 426.364H833.596V422.309H871.29V426.364Z" fill="#FFC979"/>
<path d="M944.568 426.364H875.976V422.309H944.568V426.364Z" fill="#888CF0"/>
<path d="M857.985 434.182H832.113V430.127H857.985V434.182Z" fill="#FFC979"/>
<path d="M934.459 434.182H863.697V430.127H934.459V434.182Z" fill="#888CF0"/>
<path d="M849.362 442.009H824.633V437.896H849.362V442.009Z" fill="#FFC979"/>
<path d="M949.248 442.009H853.529V437.896H949.248V442.009Z" fill="#888CF0"/>
<path d="M894.136 449.774H865.865V445.719H894.136V449.774Z" fill="#FFC979"/>
<path d="M966.727 449.774H899.506V445.719H966.727V449.774Z" fill="#888CF0"/>
<path d="M975.064 334.869H793.334V339.781H975.064V334.869Z" fill="#888CF0" stroke="#888CF0" stroke-width="0.4"/>
</g>
<path opacity="0.2" d="M706.009 538.7C706.009 542.241 716.346 545.153 729.196 545.153C741.989 545.153 752.384 542.241 752.384 538.7C752.384 535.102 741.989 532.246 729.196 532.246C716.346 532.246 706.009 535.102 706.009 538.7Z" fill="#001627"/>
<path d="M712.287 493.58L714.229 537.214L751.466 536.471L754.436 493.694L712.287 493.58Z" fill="#F1B762"/>
<path d="M713.258 493.696C713.258 496.494 722.51 498.779 733.933 498.779C745.355 498.779 753.579 496.494 753.579 493.696C753.579 490.954 745.355 488.67 733.933 488.67C722.51 488.67 713.258 490.954 713.258 493.696Z" fill="#C68D42" stroke="#F1B762" stroke-width="3.6"/>
<path d="M714.229 536.928C714.229 539.727 723.824 542.811 733.533 542.811C743.242 542.811 751.466 539.27 751.466 536.471C751.466 533.673 743.584 531.445 733.875 531.445C724.109 531.445 714.229 534.13 714.229 536.928Z" fill="#F1B762"/>
<path d="M701.61 513.856C701.61 520.024 706.636 525.05 712.804 525.05C719.029 525.05 724.055 520.024 724.055 513.856C724.055 507.688 719.029 502.662 712.804 502.662C706.636 502.662 701.61 507.688 701.61 513.856Z" stroke="#F1B762" stroke-width="8.6"/>
<path d="M743.986 496.721V513.569" stroke="#959FAF" stroke-width="2.1" stroke-linecap="round"/>
<path d="M743.987 509.344L738.39 515.112L739.132 523.85L749.755 523.336L750.383 513.227L743.987 509.344Z" fill="white"/>
<path opacity="0.2" d="M1168.05 530.306C1168.05 535.161 1153.83 539.045 1136.29 539.045C1118.76 539.045 1104.54 535.161 1104.54 530.306C1104.54 525.509 1118.76 521.568 1136.29 521.568C1153.83 521.568 1168.05 525.509 1168.05 530.306Z" fill="#001627"/>
<path d="M1104.32 439.612C1102.03 442.468 1097.86 442.982 1094.95 440.697C1092.04 438.413 1091.58 434.244 1093.81 431.331L1107.8 413.569C1110.08 410.714 1114.31 410.2 1117.17 412.484C1120.08 414.769 1120.59 418.938 1118.31 421.85L1104.32 439.612Z" fill="#F1B762"/>
<path opacity="0.1" d="M1104.32 439.612C1102.03 442.468 1097.86 442.982 1094.95 440.697C1092.04 438.413 1091.58 434.244 1093.81 431.331L1107.8 413.569C1110.08 410.714 1114.31 410.2 1117.17 412.484C1120.08 414.769 1120.59 418.938 1118.31 421.85L1104.32 439.612Z" fill="#001627"/>
<path d="M1105 527.797C1104.77 533.851 1117 536.763 1132.47 537.277C1148.01 537.791 1160.86 535.735 1161.09 529.682C1161.26 523.628 1147.84 512.891 1132.36 512.377C1116.88 511.863 1105.17 521.743 1105 527.797Z" fill="#F1B762"/>
<path opacity="0.1" d="M1138.13 513C1146.52 517.455 1152.29 524.537 1152.12 529.22C1151.95 533.332 1147.67 535.902 1141.1 537.273C1152.52 536.816 1160.92 534.588 1161.09 529.677C1161.26 524.365 1151.03 515.513 1138.13 513Z" fill="#001627"/>
<path d="M1168.05 406.773L1135.04 515.457" stroke="#F1B762" stroke-width="4.3" stroke-linecap="round"/>
<path d="M1174.74 406.773L1141.78 515.457" stroke="#F1B762" stroke-width="4.3" stroke-linecap="round"/>
<path d="M1099.29 441.782L1182.67 414.025" stroke="#F1B762" stroke-width="4.3" stroke-linecap="round"/>
<path d="M1095.75 436.07L1179.08 408.371" stroke="#F1B762" stroke-width="4.3" stroke-linecap="round"/>
<path d="M1108.09 464.688C1108.81 463.888 1109.51 463.032 1110.2 462.118C1118.65 450.296 1116.88 434.476 1106.2 426.823C1095.52 419.112 1079.99 422.482 1071.48 434.247C1070.83 435.199 1070.24 436.151 1069.71 437.103L1108.09 464.688Z" fill="#F1B762"/>
<path opacity="0.1" d="M1106.2 426.82C1105.97 426.649 1105.74 426.535 1105.52 426.363C1111.06 434.702 1110.83 446.581 1104.09 456.004C1103.4 456.918 1102.7 457.775 1101.97 458.574L1070.39 435.901C1070.16 436.282 1069.93 436.681 1069.71 437.1L1108.09 464.685C1108.81 463.886 1109.51 463.029 1110.2 462.115C1118.65 450.293 1116.88 434.473 1106.2 426.82Z" fill="#001627"/>
<path d="M1086.04 454.75C1096.84 462.46 1107 466.744 1108.71 464.345C1110.43 461.946 1103 453.779 1092.21 446.069C1081.36 438.416 1071.25 434.133 1069.54 436.532C1067.82 438.93 1075.25 447.097 1086.04 454.75Z" fill="white"/>
<path d="M862.73 355.879L852.964 376.211L861.473 382.721L862.73 355.879Z" fill="#EDAA98"/>
<path d="M864.73 342.003C864.73 342.003 842.742 418.133 885.519 407.968L887.975 432.811L920.928 436.067L922.128 400.657C922.128 400.657 933.55 327.383 927.839 320.472C922.128 313.562 874.896 300.94 864.73 342.003Z" fill="#FFC1AC"/>
<path d="M870.269 342.003C870.269 342.003 847.139 418.133 885.518 407.968L886.489 434.696L920.699 436.067L921.784 400.657C921.784 400.657 932.007 327.383 926.924 320.472C921.784 313.562 879.407 300.94 870.269 342.003Z" fill="#EDAA98"/>
<path d="M939.26 321.669C934.234 315.102 927.838 313.502 923.555 313.274C922.869 300.938 904.651 300.253 890.373 302.937C871.411 306.592 854.963 290.715 854.963 290.715C850.109 307.848 859.875 315.958 859.875 315.958C855.363 315.159 849.252 306.592 849.252 306.592C846.853 324.925 865.129 336.747 865.129 336.747C863.93 346.113 870.84 352.624 870.84 352.624L871.64 373.755H875.352C875.352 373.755 874.495 367.245 877.351 359.535C880.207 351.825 887.517 358.735 886.318 371.357C885.118 383.978 878.208 378.667 878.208 378.667C879.407 388.433 892.029 402.711 892.029 402.711H921.727C951.482 354.223 946.97 331.835 939.26 321.669Z" fill="#001627"/>
<path d="M868.442 349.654C871.411 338.003 877.58 326.924 886.603 319.499C896.141 311.675 908.534 305.735 920.985 306.935C915.388 300.767 901.681 300.824 890.373 302.937C871.411 306.592 854.963 290.715 854.963 290.715C850.109 307.848 859.875 315.958 859.875 315.958C855.363 315.159 849.252 306.592 849.252 306.592C846.853 324.925 865.129 336.747 865.129 336.747C864.444 342.344 866.614 346.913 868.442 349.654Z" fill="#03243A"/>
<path d="M884.204 362.673C883.823 362.255 883.423 361.874 883.004 361.531C882.776 361.36 882.547 361.189 882.319 361.074C882.148 360.96 881.919 360.846 881.691 360.846C881.519 360.732 881.348 360.789 881.234 360.846C881.234 360.846 881.177 360.903 881.12 360.96C881.063 360.96 881.005 361.074 881.005 361.131C880.929 361.17 880.872 361.246 880.834 361.36L880.72 361.645L880.491 362.331L880.549 362.102C880.434 363.759 880.377 365.358 880.149 366.957C879.958 368.594 879.73 370.212 879.463 371.811L878.778 370.783C879.121 370.898 879.349 371.012 879.692 371.183C879.958 371.297 880.244 371.45 880.549 371.64C880.834 371.868 881.063 372.04 881.348 372.325C881.462 372.478 881.577 372.63 881.691 372.782C881.805 372.954 881.862 373.125 881.919 373.353C881.976 373.525 882.091 373.753 882.033 373.982C881.976 374.153 881.976 374.381 881.862 374.553C881.805 374.724 881.748 374.953 881.577 375.067L881.234 375.409C881.12 375.524 881.005 375.581 880.834 375.695C880.72 375.752 880.606 375.866 880.434 375.923C880.168 376.076 879.901 376.209 879.635 376.323C880.035 375.866 880.434 375.409 880.72 374.953L880.834 374.61C880.948 374.496 880.891 374.381 880.948 374.267C880.948 374.21 880.891 374.096 880.891 374.039C880.891 373.925 880.834 373.867 880.777 373.81C880.777 373.753 880.663 373.696 880.606 373.582L880.377 373.41C880.149 373.296 879.977 373.182 879.749 373.068C879.482 372.992 879.235 372.916 879.007 372.839C878.721 372.725 878.493 372.668 878.264 372.611L877.522 372.44L877.579 371.583C877.655 369.946 877.788 368.328 877.978 366.728C878.15 365.129 878.378 363.53 878.664 361.931L878.721 361.76V361.703C878.873 361.398 879.026 361.112 879.178 360.846C879.406 360.56 879.521 360.275 879.863 359.989C880.035 359.875 880.149 359.761 880.377 359.647C880.549 359.589 880.777 359.475 881.005 359.475C881.234 359.475 881.462 359.418 881.634 359.532C881.824 359.57 881.995 359.628 882.148 359.704C882.49 359.875 882.719 360.103 882.947 360.332C883.138 360.56 883.328 360.808 883.518 361.074C883.823 361.569 884.051 362.102 884.204 362.673Z" fill="#EDAA98"/>
<path d="M1049.31 520.141C1049.31 520.141 1046.86 526.595 1050.17 528.594C1053.54 530.65 1073.59 530.421 1074.22 524.367C1074.9 518.371 1069.99 511.917 1063.99 510.375C1058 508.833 1049.31 520.141 1049.31 520.141Z" fill="#414074"/>
<path d="M1070.9 514.771C1071.13 515.971 1071.24 517.17 1071.13 518.37C1070.5 523.795 1054.28 524.538 1048.57 523.167C1048.28 525.109 1048.4 527.507 1050.17 528.593C1053.54 530.649 1073.59 530.42 1074.21 524.366C1074.61 520.997 1073.24 517.513 1070.9 514.771Z" fill="#2D2D51"/>
<path d="M1036.64 510.831C1036.64 510.831 1052.4 501.236 1054.63 501.922C1056.85 502.607 1059.08 503.464 1059.08 503.464C1059.08 503.464 1062.22 501.693 1064.22 502.607C1066.22 503.464 1075.36 507.005 1073.76 509.232C1072.22 511.459 1067.14 509.689 1067.14 509.689C1067.14 509.689 1073.59 511.288 1074.67 512.602C1074.67 512.602 1075.13 515.514 1072.22 515.514C1069.36 515.514 1062.68 513.059 1062.68 513.059C1062.68 513.059 1054 524.367 1047.32 524.367C1040.64 524.367 1036.64 510.831 1036.64 510.831Z" fill="#FFC1AC"/>
<path d="M810.358 509.345C810.358 509.345 796.594 499.75 794.652 500.435C792.711 501.121 790.769 501.977 790.769 501.977C790.769 501.977 788.084 500.207 786.314 501.121C784.601 501.977 776.662 505.575 778.033 507.746C779.346 509.973 783.801 508.203 783.801 508.203C783.801 508.203 778.204 509.802 777.233 511.115C777.233 511.115 776.833 514.028 779.346 514.028C781.859 514.028 787.685 511.572 787.685 511.572C787.685 511.572 795.223 522.88 801.049 522.88C806.874 522.88 810.358 509.345 810.358 509.345Z" fill="#FFC1AC"/>
<path d="M1038.18 505.291C1032.07 505.291 1002.54 516.085 1002.54 516.085C1002.54 516.085 980.552 452.577 962.219 434.244C943.944 415.911 884.719 421.394 856.62 426.305C838.801 429.389 826.979 453.034 821.382 509.803C809.674 503.692 804.134 501.35 799.165 502.607C785.801 505.919 789.113 522.082 789.113 522.082C789.113 522.082 811.159 538.53 819.725 540.986C824.98 542.471 838.458 560.061 848.11 497.01C847.539 512.03 840.685 542.242 846.854 575.31L966.503 586.276C966.503 586.276 962.391 542.471 960.849 508.889C970.444 519.169 981.238 546.811 992.032 547.44C1000.88 548.011 1036.35 537.045 1044.92 532.134C1053.43 527.279 1044.29 505.291 1038.18 505.291Z" fill="#F1B762"/>
<path opacity="0.1" d="M1042.52 510.487C1036.4 510.487 1004.76 522.823 1004.76 522.823C1004.76 522.823 1003.97 520.253 1002.59 516.027C1002.59 516.084 1002.54 516.084 1002.54 516.084C1002.54 516.084 984.204 463.084 967.071 439.954C966.919 439.802 966.747 439.631 966.557 439.44C948.281 421.107 889.056 426.647 860.957 431.502C843.138 434.586 831.316 458.287 825.719 514.999C818.237 511.116 806.301 506.033 797.335 503.177C786.141 507.46 789.11 522.081 789.11 522.081C789.11 522.081 811.156 538.529 819.722 540.985C824.977 542.47 838.455 560.06 848.107 497.009C847.536 512.029 840.682 542.241 846.851 575.309L966.5 586.275C966.5 586.275 962.388 542.47 960.846 508.888C970.441 519.168 981.235 546.81 992.029 547.439C1000.88 548.01 1036.35 537.044 1044.91 532.133C1050.57 528.877 1048.4 518.083 1044.57 511.23C1043.83 510.773 1043.14 510.487 1042.52 510.487Z" fill="#001627"/>
<path d="M990.834 642.074H1046.35C1053.54 627.397 1060 611.748 1059.31 608.264C1053.26 575.311 965.305 567.486 965.305 567.486C953.141 571.256 944.745 574.168 931.895 575.653C904.538 578.852 877.011 577.824 849.597 575.768C851.025 588.903 853.081 600.611 856.108 608.264H954.968C968.447 616.088 980.269 629.567 990.834 642.074Z" fill="#001627"/>
<path d="M1014.13 630.536C1014.13 637.275 1008.7 642.758 1001.91 642.758H837.941C831.201 642.758 825.719 637.275 825.719 630.536V610.718C825.719 603.979 831.201 598.496 837.941 598.496H1001.91C1008.7 598.496 1014.13 603.979 1014.13 610.718V630.536Z" fill="#414074"/>
<path opacity="0.4" d="M959.189 630.652C959.189 637.334 954.277 642.76 948.166 642.76H836.741C830.63 642.76 825.719 637.334 825.719 630.652V611.748C825.719 605.066 830.63 599.641 836.741 599.641H948.166C954.277 599.641 959.189 605.066 959.189 611.748V630.652Z" fill="#001627"/>
<path d="M959.992 545.152C959.992 551.377 954.966 556.403 948.741 556.403H845.426C839.201 556.403 834.175 551.377 834.175 545.152V463.196C834.175 456.971 839.201 451.945 845.426 451.945H948.741C954.966 451.945 959.992 456.971 959.992 463.196V545.152Z" fill="#414074"/>
<path opacity="0.4" d="M947.599 546.294C947.599 551.891 943.087 556.403 937.49 556.403H844.283C838.744 556.403 834.175 551.891 834.175 546.294V473.191C834.175 467.651 838.744 463.082 844.283 463.082H937.49C943.087 463.082 947.599 467.651 947.599 473.191V546.294Z" fill="#001627"/>
<path d="M903.963 642.073V519.91C903.963 514.028 899.165 509.23 893.283 509.23C887.4 509.23 882.603 514.028 882.603 519.91V642.073H903.963Z" fill="#6E7989"/>
<path opacity="0.2" d="M898.995 642.075H903.964V519.913C903.964 515.687 901.508 512.032 897.967 510.318C898.596 511.689 898.995 513.288 898.995 514.944V642.075Z" fill="#001627"/>
<path d="M1124.36 108.879H1035.04C1028.64 108.879 1023.39 114.133 1023.39 120.53V175.357C1023.39 181.811 1028.64 187.008 1035.04 187.008H1075.19L1068.79 210.595H1075.19L1100.72 187.008H1124.36C1130.81 187.008 1136.01 181.811 1136.01 175.357V120.53C1136.01 114.133 1130.81 108.879 1124.36 108.879Z" fill="#A9ACD8"/>
<path d="M1117.96 108.879H1028.64C1022.24 108.879 1016.99 114.133 1016.99 120.53V175.357C1016.99 181.811 1022.24 187.008 1028.64 187.008H1068.79V210.595L1094.32 187.008H1117.96C1124.42 187.008 1129.61 181.811 1129.61 175.357V120.53C1129.61 114.133 1124.42 108.879 1117.96 108.879Z" fill="white"/>
<path d="M1047.89 140.633C1046.25 140.633 1044.98 141.299 1044.06 142.632C1043.15 143.964 1042.69 145.811 1042.69 148.171C1042.69 153.045 1044.54 155.482 1048.23 155.482C1049.37 155.482 1050.46 155.329 1051.49 155.025C1052.55 154.72 1053.62 154.339 1054.68 153.883V159.708C1052.55 160.66 1050.15 161.136 1047.49 161.136C1043.68 161.136 1040.75 160.013 1038.69 157.766C1036.64 155.558 1035.61 152.341 1035.61 148.114C1035.61 145.487 1036.1 143.184 1037.09 141.204C1038.08 139.224 1039.51 137.682 1041.38 136.578C1043.24 135.512 1045.43 134.979 1047.95 134.979C1050.69 134.979 1053.31 135.588 1055.83 136.806L1053.71 142.175C1052.76 141.756 1051.83 141.394 1050.92 141.089C1049.96 140.785 1048.95 140.633 1047.89 140.633Z" fill="#888CF0"/>
<path d="M1070.73 160.739L1065.53 142.463H1065.36C1065.59 145.585 1065.71 148.003 1065.71 149.716V160.739H1059.65V135.381H1068.79L1074.1 153.371H1074.22L1079.41 135.381H1088.55V160.739H1082.27V149.602C1082.27 149.031 1082.27 148.402 1082.27 147.717C1082.31 146.994 1082.38 145.261 1082.5 142.52H1082.38L1077.24 160.739H1070.73Z" fill="#888CF0"/>
<path d="M1110.66 153.026C1110.66 154.625 1110.26 156.034 1109.46 157.252C1108.66 158.471 1107.5 159.422 1105.97 160.108C1104.49 160.793 1102.74 161.136 1100.72 161.136C1099.01 161.136 1097.58 161.002 1096.44 160.736C1095.29 160.508 1094.11 160.108 1092.9 159.537V153.369C1094.19 154.054 1095.54 154.587 1096.95 154.968C1098.36 155.348 1099.65 155.539 1100.83 155.539C1101.86 155.539 1102.6 155.367 1103.06 155.025C1103.56 154.644 1103.8 154.187 1103.8 153.654C1103.8 153.311 1103.71 153.007 1103.52 152.74C1103.33 152.474 1103.02 152.207 1102.6 151.941C1102.19 151.674 1101.06 151.122 1099.24 150.284C1097.56 149.561 1096.3 148.838 1095.47 148.114C1094.67 147.391 1094.06 146.572 1093.64 145.658C1093.26 144.745 1093.07 143.66 1093.07 142.403C1093.07 140.081 1093.9 138.272 1095.58 136.977C1097.29 135.645 1099.64 134.979 1102.6 134.979C1105.23 134.979 1107.92 135.588 1110.66 136.806L1108.54 142.117C1106.18 141.013 1104.15 140.461 1102.43 140.461C1101.52 140.461 1100.85 140.633 1100.43 140.975C1100.05 141.28 1099.86 141.661 1099.86 142.117C1099.86 142.612 1100.11 143.05 1100.61 143.431C1101.14 143.85 1102.55 144.573 1104.83 145.601C1107 146.591 1108.53 147.657 1109.4 148.8C1110.24 149.904 1110.66 151.312 1110.66 153.026Z" fill="#888CF0"/>
<path d="M912.247 210.141H833.261C827.55 210.141 822.924 214.767 822.924 220.421V268.909C822.924 274.391 827.207 278.846 832.576 279.189L826.922 298.493H832.576L853.422 279.246H912.247C917.958 279.246 922.527 274.62 922.527 268.909V220.421C922.527 214.767 917.958 210.141 912.247 210.141Z" fill="#A9ACD8"/>
<path d="M906.593 210.141H827.607C821.896 210.141 817.27 214.767 817.27 220.421V268.909C817.27 274.391 821.553 278.846 826.922 279.189V298.493L847.767 279.246H906.593C912.304 279.246 916.873 274.62 916.873 268.909V220.421C916.873 214.767 912.304 210.141 906.593 210.141Z" fill="white"/>
<path d="M847.543 233.329C845.525 233.329 843.945 234.148 842.803 235.785C841.698 237.46 841.146 239.745 841.146 242.638C841.146 248.692 843.431 251.719 848 251.719C849.408 251.719 850.76 251.51 852.055 251.091C853.349 250.71 854.663 250.253 855.995 249.72V256.859C853.368 258.039 850.398 258.63 847.086 258.63C842.365 258.63 838.729 257.259 836.178 254.517C833.665 251.776 832.408 247.797 832.408 242.581C832.408 239.345 833.017 236.489 834.236 234.014C835.454 231.578 837.225 229.693 839.547 228.36C841.832 227.028 844.535 226.361 847.657 226.361C851.046 226.361 854.282 227.104 857.366 228.589L854.739 235.271C853.597 234.7 852.435 234.243 851.255 233.9C850.113 233.519 848.875 233.329 847.543 233.329Z" fill="#888CF0"/>
<path d="M868.217 245.552H860.279V239.84H868.217V231.959H873.986V239.84H881.981V245.552H873.986V253.319H868.217V245.552Z" fill="#888CF0"/>
<path d="M893.118 245.552H885.123V239.84H893.118V231.959H898.887V239.84H906.882V245.552H898.887V253.319H893.118V245.552Z" fill="#888CF0"/>
<path d="M939.316 183.982C939.316 201.458 953.48 215.622 970.956 215.622C988.432 215.622 1002.65 201.458 1002.65 183.982C1002.65 166.449 988.432 152.285 970.956 152.285C953.48 152.285 939.316 166.449 939.316 183.982Z" fill="#7178C6"/>
<path d="M932.522 183.982C932.522 201.458 946.686 215.622 964.219 215.622C981.695 215.622 995.859 201.458 995.859 183.982C995.859 166.449 981.695 152.285 964.219 152.285C946.686 152.285 932.522 166.449 932.522 183.982Z" fill="#888CF0"/>
<path d="M948.973 177.929C947.603 177.929 946.555 178.481 945.832 179.585C945.071 180.689 944.69 182.212 944.69 184.154C944.69 188.152 946.213 190.151 949.259 190.151C950.173 190.151 951.067 190.017 951.943 189.751C952.819 189.522 953.694 189.218 954.57 188.837V193.635C952.819 194.396 950.839 194.777 948.631 194.777C945.508 194.777 943.11 193.863 941.434 192.035C939.759 190.208 938.922 187.562 938.922 184.097C938.922 181.965 939.321 180.08 940.121 178.443C940.92 176.806 942.082 175.549 943.605 174.673C945.128 173.76 946.936 173.303 949.03 173.303C951.277 173.303 953.428 173.798 955.484 174.788L953.713 179.242C952.952 178.862 952.191 178.557 951.429 178.329C950.668 178.062 949.849 177.929 948.973 177.929Z" fill="white"/>
<path d="M972.277 188.152C972.277 189.446 971.934 190.589 971.249 191.579C970.601 192.607 969.669 193.387 968.45 193.92C967.194 194.491 965.728 194.777 964.053 194.777C962.682 194.777 961.521 194.682 960.569 194.491C959.655 194.301 958.684 193.958 957.656 193.463V188.437C958.722 188.97 959.845 189.389 961.026 189.694C962.168 190.036 963.215 190.208 964.167 190.208C965.004 190.208 965.633 190.056 966.051 189.751C966.432 189.446 966.623 189.066 966.623 188.609C966.623 188.342 966.546 188.095 966.394 187.866C966.242 187.676 965.994 187.466 965.652 187.238C965.271 187.01 964.338 186.553 962.853 185.867C961.483 185.258 960.455 184.668 959.769 184.097C959.122 183.526 958.627 182.859 958.284 182.098C957.942 181.336 957.77 180.442 957.77 179.414C957.77 177.51 958.475 176.025 959.883 174.959C961.292 173.855 963.215 173.303 965.652 173.303C967.822 173.303 970.03 173.817 972.277 174.845L970.506 179.185C968.564 178.271 966.889 177.815 965.48 177.815C964.757 177.815 964.224 177.948 963.881 178.214C963.539 178.481 963.367 178.805 963.367 179.185C963.367 179.604 963.577 179.966 963.995 180.27C964.414 180.613 965.576 181.203 967.479 182.041C969.269 182.84 970.506 183.716 971.192 184.668C971.915 185.582 972.277 186.743 972.277 188.152Z" fill="white"/>
<path d="M989.12 188.152C989.12 189.446 988.778 190.589 988.092 191.579C987.445 192.607 986.512 193.387 985.294 193.92C984.037 194.491 982.591 194.777 980.953 194.777C979.545 194.777 978.364 194.682 977.412 194.491C976.499 194.301 975.528 193.958 974.5 193.463V188.437C975.566 188.97 976.689 189.389 977.869 189.694C979.012 190.036 980.078 190.208 981.068 190.208C981.905 190.208 982.514 190.056 982.895 189.751C983.276 189.446 983.466 189.066 983.466 188.609C983.466 188.342 983.39 188.095 983.238 187.866C983.085 187.676 982.838 187.466 982.495 187.238C982.153 187.01 981.22 186.553 979.697 185.867C978.326 185.258 977.317 184.668 976.67 184.097C975.985 183.526 975.471 182.859 975.128 182.098C974.785 181.336 974.614 180.442 974.614 179.414C974.614 177.51 975.318 176.025 976.727 174.959C978.136 173.855 980.059 173.303 982.495 173.303C984.666 173.303 986.874 173.817 989.12 174.845L987.35 179.185C985.408 178.271 983.733 177.815 982.324 177.815C981.601 177.815 981.068 177.948 980.725 178.214C980.382 178.481 980.211 178.805 980.211 179.185C980.211 179.604 980.42 179.966 980.839 180.27C981.296 180.613 982.457 181.203 984.323 182.041C986.112 182.84 987.35 183.716 988.035 184.668C988.759 185.582 989.12 186.743 989.12 188.152Z" fill="white"/>
<path d="M774.67 247.489C774.67 223.959 755.595 204.826 732.008 204.826C708.478 204.826 689.345 223.959 689.345 247.489C689.345 271.076 708.478 290.151 732.008 290.151C737.776 290.151 743.316 289.009 748.342 286.896L753.539 299.175H760.621V279.129C769.245 271.361 774.67 260.053 774.67 247.489Z" fill="#7178C6"/>
<path d="M767.587 247.489C767.587 223.959 748.512 204.826 724.924 204.826C701.394 204.826 682.262 223.959 682.262 247.489C682.262 271.076 701.394 290.151 724.924 290.151C730.75 290.151 736.233 289.009 741.258 286.896L753.537 299.175V279.129C762.161 271.361 767.587 260.053 767.587 247.489Z" fill="#888CF0"/>
<path d="M709.847 268.106C708.172 268.106 706.591 267.954 705.107 267.649V260.51C705.602 260.625 706.135 260.739 706.706 260.853C707.239 260.967 707.829 261.024 708.476 261.024C709.999 261.024 711.084 260.568 711.732 259.654C712.379 258.74 712.702 257.179 712.702 254.971V223.73H721.897V254.228C721.897 258.797 720.888 262.262 718.871 264.623C716.853 266.945 713.845 268.106 709.847 268.106Z" fill="white"/>
<path d="M748.854 249.486C748.854 252.265 747.902 254.378 745.998 255.825C744.095 257.272 741.353 257.995 737.774 257.995C735.833 257.995 734.138 257.881 732.691 257.653C731.283 257.462 729.836 257.082 728.351 256.51V249.257C729.722 249.904 731.245 250.418 732.92 250.799C734.595 251.218 736.099 251.427 737.432 251.427C739.374 251.427 740.344 250.971 740.344 250.057C740.344 249.6 740.078 249.181 739.545 248.8C738.974 248.458 737.375 247.753 734.747 246.687C732.349 245.735 730.673 244.631 729.722 243.375C728.77 242.118 728.294 240.519 728.294 238.577C728.294 236.141 729.227 234.237 731.092 232.866C732.958 231.533 735.623 230.867 739.088 230.867C740.801 230.867 742.419 231.058 743.942 231.438C745.465 231.819 747.046 232.371 748.683 233.095L746.227 238.92C745.009 238.349 743.733 237.892 742.4 237.549C741.068 237.169 739.983 236.978 739.145 236.978C737.66 236.978 736.918 237.34 736.918 238.063C736.918 238.482 737.165 238.863 737.66 239.206C738.193 239.51 739.697 240.138 742.172 241.09C744 241.852 745.351 242.594 746.227 243.318C747.141 244.041 747.807 244.898 748.226 245.888C748.645 246.878 748.854 248.077 748.854 249.486Z" fill="white"/>
<path d="M813.963 95H751.026C746.114 95 742.116 98.9978 742.116 103.909V166.847C742.116 171.758 746.114 175.756 751.026 175.756H788.034L802.484 193.232H808.309V175.756H813.963C818.875 175.756 822.872 171.758 822.872 166.847V103.909C822.872 98.9978 818.875 95 813.963 95Z" fill="#2E2E59"/>
<path d="M808.135 95H745.198C740.286 95 736.288 98.9978 736.288 103.909V166.847C736.288 171.758 740.286 175.756 745.198 175.756H782.206L802.481 193.232V175.756H808.135C813.047 175.756 817.044 171.758 817.044 166.847V103.909C817.044 98.9978 813.047 95 808.135 95Z" fill="#414074"/>
<path d="M768.213 145.6L747.367 136.348V132.807L768.213 122.355V128.466L755.419 134.292L768.213 139.489V145.6Z" fill="white"/>
<path d="M788.431 118.643L777.18 149.711H769.984L781.235 118.643H788.431Z" fill="white"/>
<path d="M789.974 139.489L802.767 134.292L789.974 128.466V122.355L810.877 132.807V136.348L789.974 145.6V139.489Z" fill="white"/>
<path d="M1133.1 277.932H1077.65C1073.3 277.932 1069.76 281.473 1069.76 285.813V318.995C1069.76 323.336 1073.3 326.876 1077.65 326.876L1074.28 342.525H1080.16L1097.06 326.876H1133.1C1137.44 326.876 1140.98 323.336 1140.98 318.995V285.813C1140.98 281.473 1137.44 277.932 1133.1 277.932Z" fill="#2E2E59"/>
<path d="M1127.16 277.932H1071.71C1067.37 277.932 1063.82 281.473 1063.82 285.813V318.995C1063.82 323.336 1067.37 326.876 1071.71 326.876H1074.28V342.525L1091.12 326.876H1127.16C1131.5 326.876 1135.04 323.336 1135.04 318.995V285.813C1135.04 281.473 1131.5 277.932 1127.16 277.932Z" fill="#414074"/>
<path d="M1087.01 311.167H1084.55V304.371H1077.59V311.167H1075.13V296.09H1077.59V302.258H1084.55V296.09H1087.01V311.167Z" fill="white"/>
<path d="M1096.2 311.167H1093.75V298.203H1089.29V296.09H1100.6V298.203H1096.2V311.167Z" fill="white"/>
<path d="M1109.45 311.167L1105.11 298.603H1105C1105.11 300.468 1105.17 302.22 1105.17 303.857V311.167H1102.94V296.09H1106.43L1110.6 308.083H1110.65L1114.99 296.09H1118.48V311.167H1116.08V303.743C1116.08 302.981 1116.1 301.991 1116.14 300.773C1116.17 299.593 1116.21 298.869 1116.25 298.603H1116.19L1111.62 311.167H1109.45Z" fill="white"/>
<path d="M1122.42 311.167V296.09H1124.93V309.054H1131.27V311.167H1122.42Z" fill="white"/>
<path d="M707.04 337.213C707.04 348.921 716.577 358.458 728.285 358.458C740.05 358.458 749.588 348.921 749.588 337.213C749.588 325.448 740.05 315.91 728.285 315.91C716.577 315.91 707.04 325.448 707.04 337.213Z" fill="#D8A159"/>
<path d="M703.045 337.213C703.045 348.921 712.583 358.458 724.348 358.458C736.113 358.458 745.594 348.921 745.594 337.213C745.594 325.448 736.113 315.91 724.348 315.91C712.583 315.91 703.045 325.448 703.045 337.213Z" fill="#FFC979"/>
<path d="M718.062 336.697C718.062 334.108 718.423 331.69 719.147 329.444C719.908 327.16 721.012 325.161 722.459 323.447H725.486C724.115 325.313 723.068 327.388 722.345 329.672C721.622 331.957 721.26 334.299 721.26 336.697C721.26 339.096 721.622 341.399 722.345 343.608C723.068 345.854 724.096 347.891 725.429 349.719H722.459C721.012 348.043 719.908 346.102 719.147 343.893C718.423 341.647 718.062 339.248 718.062 336.697Z" fill="#414074"/>
<path d="M728.342 330.585C728.342 329.1 729.065 328.357 730.512 328.357C731.236 328.357 731.788 328.548 732.168 328.929C732.511 329.309 732.682 329.861 732.682 330.585C732.682 331.27 732.492 331.822 732.111 332.241C731.731 332.622 731.198 332.812 730.512 332.812C729.789 332.812 729.237 332.622 728.856 332.241C728.513 331.822 728.342 331.27 728.342 330.585ZM728.342 343.092C728.342 342.407 728.513 341.874 728.856 341.493C729.237 341.112 729.789 340.922 730.512 340.922C731.236 340.922 731.769 341.112 732.111 341.493C732.492 341.874 732.682 342.407 732.682 343.092C732.682 343.816 732.492 344.368 732.111 344.749C731.731 345.167 731.198 345.377 730.512 345.377C729.789 345.377 729.237 345.186 728.856 344.806C728.513 344.387 728.342 343.816 728.342 343.092Z" fill="#414074"/>
<path d="M1044.75 258.969C1044.75 240.237 1029.55 225.045 1010.82 225.045C992.088 225.045 976.897 240.237 976.897 258.969C976.897 276.274 989.804 290.495 1006.48 292.608L1011.05 307.115H1016.36L1020.93 291.409C1034.75 287.068 1044.75 274.218 1044.75 258.969Z" fill="#D8A159"/>
<path d="M1039.49 258.969C1039.49 240.237 1024.3 225.045 1005.51 225.045C986.777 225.045 971.585 240.237 971.585 258.969C971.585 276.274 984.492 290.495 1001.23 292.608L1011.05 307.115L1015.62 291.409C1029.44 287.068 1039.49 274.218 1039.49 258.969Z" fill="#FFC979"/>
<path fill-rule="evenodd" clip-rule="evenodd" d="M996.944 254.513C996.944 256.493 996.353 258.035 995.173 259.14C993.993 260.206 992.317 260.739 990.147 260.739H988.834V266.678H983.979V248.859H990.147C992.394 248.859 994.088 249.354 995.23 250.344C996.372 251.334 996.944 252.724 996.944 254.513ZM988.834 256.855H989.69C990.414 256.855 990.985 256.646 991.404 256.227C991.822 255.808 992.032 255.256 992.032 254.571C992.032 253.352 991.366 252.743 990.033 252.743H988.834V256.855Z" fill="#414074"/>
<path d="M1015.05 266.678H1010.2V259.425H1004.6V266.678H999.744V248.859H1004.6V255.484H1010.2V248.859H1015.05V266.678Z" fill="#414074"/>
<path fill-rule="evenodd" clip-rule="evenodd" d="M1031.84 254.513C1031.84 256.493 1031.25 258.035 1030.07 259.14C1028.89 260.206 1027.21 260.739 1025.04 260.739H1023.67V266.678H1018.87V248.859H1025.04C1027.29 248.859 1028.98 249.354 1030.12 250.344C1031.26 251.334 1031.84 252.724 1031.84 254.513ZM1023.67 256.855H1024.58C1025.31 256.855 1025.88 256.646 1026.3 256.227C1026.71 255.808 1026.92 255.256 1026.92 254.571C1026.92 253.352 1026.26 252.743 1024.93 252.743H1023.67V256.855Z" fill="#414074"/>
<path d="M891.228 125.496H852.678C849.651 125.496 847.195 127.952 847.195 130.979V169.529C847.195 172.556 849.651 175.012 852.678 175.012H871.924L882.433 189.004H887.973V175.012H891.228C894.255 175.012 896.711 172.556 896.711 169.529V130.979C896.711 127.952 894.255 125.496 891.228 125.496Z" fill="#D8A159"/>
<path d="M885.631 125.496H847.081C844.054 125.496 841.598 127.952 841.598 130.979V169.529C841.598 172.556 844.054 175.012 847.081 175.012H866.327L882.433 189.004V175.012H885.631C888.658 175.012 891.114 172.556 891.114 169.529V130.979C891.114 127.952 888.658 125.496 885.631 125.496Z" fill="#FFC979"/>
<path d="M883.865 163.591C885.007 164.733 885.007 166.617 883.865 167.76C882.723 168.902 880.838 168.902 879.696 167.76L871.472 159.536C870.33 158.393 870.33 156.566 871.472 155.366C872.614 154.224 874.499 154.224 875.641 155.366L883.865 163.591Z" fill="#414074"/>
<path fill-rule="evenodd" clip-rule="evenodd" d="M868.733 152.624C864.221 157.135 856.911 157.135 852.456 152.624C847.944 148.112 847.944 140.801 852.456 136.347C856.911 131.835 864.221 131.835 868.733 136.347C873.245 140.801 873.245 148.112 868.733 152.624ZM854.284 138.174C850.8 141.658 850.8 147.312 854.284 150.796C857.768 154.28 863.422 154.28 866.905 150.796C870.389 147.312 870.389 141.658 866.905 138.174C863.422 134.691 857.768 134.691 854.284 138.174Z" fill="#414074"/>
<path d="M877.638 159.706L875.81 161.591L866.901 152.624L868.728 150.797L877.638 159.706Z" fill="#414074"/>
<path d="M66.774 297V251.12H85.87C95.108 251.12 100.688 255.956 100.688 263.83C100.688 268.728 98.456 272.324 94.302 274.122C98.828 275.61 101.246 279.144 101.246 284.352C101.246 292.474 95.79 297 85.87 297H66.774ZM84.816 259.924H76.818V269.906H84.816C88.412 269.906 90.396 268.108 90.396 264.822C90.396 261.598 88.474 259.924 84.816 259.924ZM85.312 278.338H76.818V288.196H85.312C89.032 288.196 90.954 286.522 90.954 283.112C90.954 280.012 88.97 278.338 85.312 278.338ZM121.522 297.806C112.16 297.806 105.464 290.986 105.464 281.438C105.464 271.766 111.974 265.008 121.336 265.008C131.07 265.008 137.146 271.394 137.146 281.5V283.918L114.64 284.042C115.198 288.134 117.492 290.056 121.708 290.056C125.304 290.056 127.846 288.754 128.528 286.522H137.27C136.154 293.404 130.016 297.806 121.522 297.806ZM121.398 272.758C117.616 272.758 115.508 274.432 114.764 278.152H127.66C127.66 274.866 125.242 272.758 121.398 272.758ZM140.879 287.204H149.931C150.055 289.374 151.667 290.676 154.581 290.676C157.557 290.676 158.921 289.622 158.921 288.01C158.921 287.08 158.425 286.088 156.131 285.592L150.427 284.352C144.723 283.112 141.933 280.632 141.933 275.176C141.933 268.728 147.451 265.008 154.891 265.008C162.083 265.008 167.105 269.224 167.105 275.486H158.053C158.053 273.378 156.751 271.952 154.457 271.952C152.287 271.952 150.923 273.068 150.923 274.742C150.923 276.168 152.101 276.974 154.271 277.47L160.037 278.71C165.121 279.826 167.911 282.182 167.911 287.142C167.911 293.776 162.269 297.806 154.209 297.806C146.025 297.806 140.879 293.466 140.879 287.204ZM185.734 297H176.186V273.936H170.296V266H176.186V256.39H185.734V266H191.624V273.936H185.734V297ZM240.285 279.082H224.165V297H214.121V251.12H243.323V260.42H224.165V270.03H240.285V279.082ZM268.046 266H277.594V297H268.604L267.984 293.528C266.062 296.07 262.218 297.806 258.498 297.806C251.43 297.806 247.09 293.094 247.09 285.468V266H256.638V281.996C256.638 287.08 258.374 289.312 262.28 289.312C266.372 289.312 268.046 287.204 268.046 282.12V266ZM294.617 297H285.069V250.252H294.617V297ZM311.638 297H302.09V250.252H311.638V297ZM334.465 264.45C334.465 256.142 341.471 250.252 351.329 250.252C361.187 250.252 367.387 255.708 367.387 264.388H357.405C357.405 261.164 354.987 259.18 351.205 259.18C347.113 259.18 344.509 261.04 344.509 264.078C344.509 266.868 345.935 268.232 349.159 268.914L356.041 270.34C364.225 272.014 368.131 275.92 368.131 283.174C368.131 292.04 361.187 297.806 350.647 297.806C340.417 297.806 333.783 292.288 333.783 283.67H343.765C343.765 287.018 346.245 288.878 350.709 288.878C355.235 288.878 358.087 287.08 358.087 284.166C358.087 281.624 356.909 280.322 353.871 279.702L346.865 278.276C338.681 276.602 334.465 271.952 334.465 264.45ZM386.444 297H376.896V273.936H371.006V266H376.896V256.39H386.444V266H392.334V273.936H386.444V297ZM406.297 297.806C399.725 297.806 395.633 293.962 395.633 287.886C395.633 282.182 399.663 278.648 407.103 278.09L415.783 277.408V276.912C415.783 273.874 413.923 272.262 410.513 272.262C406.483 272.262 404.313 273.812 404.313 276.602H396.377C396.377 269.596 402.143 265.008 411.009 265.008C419.999 265.008 425.083 270.03 425.083 278.896V297H416.651L416.031 292.908C415.039 295.76 410.947 297.806 406.297 297.806ZM409.645 290.738C413.303 290.738 415.845 288.94 415.845 285.406V283.732L411.009 284.166C406.855 284.538 405.367 285.468 405.367 287.452C405.367 289.684 406.731 290.738 409.645 290.738ZM430.567 281.376C430.567 271.828 437.139 265.008 446.439 265.008C455.615 265.008 461.691 270.03 462.311 278.152H452.701C452.019 275.052 450.097 273.564 446.811 273.564C442.781 273.564 440.177 276.602 440.177 281.376C440.177 286.336 442.595 289.25 446.687 289.25C450.035 289.25 452.081 287.7 452.701 284.662H462.311C461.691 292.474 455.367 297.806 446.687 297.806C436.891 297.806 430.567 291.296 430.567 281.376ZM477.398 297H467.85V250.252H477.398V277.16L487.442 266H499.408L487.752 278.276L499.036 297H488L481.056 285.406L477.398 289.25V297ZM84.754 381H66.774V335.12H84.134C97.588 335.12 106.95 344.544 106.95 358.184C106.95 371.576 97.836 381 84.754 381ZM83.142 344.42H76.818V371.7H83.762C91.698 371.7 96.348 366.678 96.348 358.184C96.348 349.504 91.45 344.42 83.142 344.42ZM127.456 381.806C118.094 381.806 111.398 374.986 111.398 365.438C111.398 355.766 117.908 349.008 127.27 349.008C137.004 349.008 143.08 355.394 143.08 365.5V367.918L120.574 368.042C121.132 372.134 123.426 374.056 127.642 374.056C131.238 374.056 133.78 372.754 134.462 370.522H143.204C142.088 377.404 135.95 381.806 127.456 381.806ZM127.332 356.758C123.55 356.758 121.442 358.432 120.698 362.152H133.594C133.594 358.866 131.176 356.758 127.332 356.758ZM156.274 381L144.184 350H154.476L158.258 360.85C159.808 365.376 161.048 369.282 161.296 370.708C161.668 368.91 163.032 364.88 164.582 360.85L168.736 350H178.656L165.698 381H156.274ZM195.707 381.806C186.345 381.806 179.649 374.986 179.649 365.438C179.649 355.766 186.159 349.008 195.521 349.008C205.255 349.008 211.331 355.394 211.331 365.5V367.918L188.825 368.042C189.383 372.134 191.677 374.056 195.893 374.056C199.489 374.056 202.031 372.754 202.713 370.522H211.455C210.339 377.404 204.201 381.806 195.707 381.806ZM195.583 356.758C191.801 356.758 189.693 358.432 188.949 362.152H201.845C201.845 358.866 199.427 356.758 195.583 356.758ZM226.843 381H217.295V334.252H226.843V381ZM232.642 365.438C232.642 355.642 239.834 349.07 249.754 349.07C259.612 349.07 266.804 355.642 266.804 365.438C266.804 375.234 259.612 381.744 249.754 381.744C239.834 381.744 232.642 375.234 232.642 365.438ZM242.252 365.376C242.252 370.088 245.29 373.188 249.754 373.188C254.156 373.188 257.194 370.088 257.194 365.376C257.194 360.726 254.156 357.626 249.754 357.626C245.29 357.626 242.252 360.726 242.252 365.376ZM272.649 395.88V350H281.639L282.135 353.782C283.871 350.93 287.777 349.008 292.179 349.008C300.797 349.008 306.811 355.022 306.811 365.004C306.811 374.8 301.479 381.868 292.241 381.868C287.963 381.868 283.995 380.256 282.197 377.9V395.88H272.649ZM282.259 365.5C282.259 370.15 285.359 373.25 289.823 373.25C294.349 373.25 297.201 370.088 297.201 365.5C297.201 360.912 294.349 357.75 289.823 357.75C285.359 357.75 282.259 360.85 282.259 365.5ZM327.002 381.806C317.64 381.806 310.944 374.986 310.944 365.438C310.944 355.766 317.454 349.008 326.816 349.008C336.55 349.008 342.626 355.394 342.626 365.5V367.918L320.12 368.042C320.678 372.134 322.972 374.056 327.188 374.056C330.784 374.056 333.326 372.754 334.008 370.522H342.75C341.634 377.404 335.496 381.806 327.002 381.806ZM326.878 356.758C323.096 356.758 320.988 358.432 320.244 362.152H333.14C333.14 358.866 330.722 356.758 326.878 356.758ZM369.918 350V358.99H366.88C361.424 358.99 358.138 361.408 358.138 367.546V381H348.59V350.062H357.58L358.076 354.65C359.378 351.612 362.106 349.566 366.26 349.566C367.376 349.566 368.616 349.69 369.918 350ZM412.792 381.744C399.028 381.744 390.41 372.63 390.41 358.122C390.41 343.8 399.524 334.376 413.226 334.376C424.696 334.376 432.942 340.948 434.368 351.24H423.766C422.402 346.652 418.496 344.048 412.978 344.048C405.538 344.048 401.012 349.318 401.012 358.06C401.012 366.678 405.6 372.072 412.978 372.072C418.62 372.072 422.774 369.282 424.014 364.756H434.43C432.818 374.986 424.262 381.744 412.792 381.744ZM438.605 365.438C438.605 355.642 445.797 349.07 455.717 349.07C465.575 349.07 472.767 355.642 472.767 365.438C472.767 375.234 465.575 381.744 455.717 381.744C445.797 381.744 438.605 375.234 438.605 365.438ZM448.215 365.376C448.215 370.088 451.253 373.188 455.717 373.188C460.119 373.188 463.157 370.088 463.157 365.376C463.157 360.726 460.119 357.626 455.717 357.626C451.253 357.626 448.215 360.726 448.215 365.376ZM498.47 350H508.018V381H499.028L498.408 377.528C496.486 380.07 492.642 381.806 488.922 381.806C481.854 381.806 477.514 377.094 477.514 369.468V350H487.062V365.996C487.062 371.08 488.798 373.312 492.704 373.312C496.796 373.312 498.47 371.204 498.47 366.12V350ZM536.821 350V358.99H533.783C528.327 358.99 525.041 361.408 525.041 367.546V381H515.493V350.062H524.483L524.979 354.65C526.281 351.612 529.009 349.566 533.163 349.566C534.279 349.566 535.519 349.69 536.821 350ZM539.727 371.204H548.779C548.903 373.374 550.515 374.676 553.429 374.676C556.405 374.676 557.769 373.622 557.769 372.01C557.769 371.08 557.273 370.088 554.979 369.592L549.275 368.352C543.571 367.112 540.781 364.632 540.781 359.176C540.781 352.728 546.299 349.008 553.739 349.008C560.931 349.008 565.953 353.224 565.953 359.486H556.901C556.901 357.378 555.599 355.952 553.305 355.952C551.135 355.952 549.771 357.068 549.771 358.742C549.771 360.168 550.949 360.974 553.119 361.47L558.885 362.71C563.969 363.826 566.759 366.182 566.759 371.142C566.759 377.776 561.117 381.806 553.057 381.806C544.873 381.806 539.727 377.466 539.727 371.204ZM586.442 381.806C577.08 381.806 570.384 374.986 570.384 365.438C570.384 355.766 576.894 349.008 586.256 349.008C595.99 349.008 602.066 355.394 602.066 365.5V367.918L579.56 368.042C580.118 372.134 582.412 374.056 586.628 374.056C590.224 374.056 592.766 372.754 593.448 370.522H602.19C601.074 377.404 594.936 381.806 586.442 381.806ZM586.318 356.758C582.536 356.758 580.428 358.432 579.684 362.152H592.58C592.58 358.866 590.162 356.758 586.318 356.758ZM605.799 371.204H614.851C614.975 373.374 616.587 374.676 619.501 374.676C622.477 374.676 623.841 373.622 623.841 372.01C623.841 371.08 623.345 370.088 621.051 369.592L615.347 368.352C609.643 367.112 606.853 364.632 606.853 359.176C606.853 352.728 612.371 349.008 619.811 349.008C627.003 349.008 632.025 353.224 632.025 359.486H622.973C622.973 357.378 621.671 355.952 619.377 355.952C617.207 355.952 615.843 357.068 615.843 358.742C615.843 360.168 617.021 360.974 619.191 361.47L624.957 362.71C630.041 363.826 632.831 366.182 632.831 371.142C632.831 377.776 627.189 381.806 619.129 381.806C610.945 381.806 605.799 377.466 605.799 371.204Z" fill="white"/>
</g>
<defs>
<linearGradient id="paint0_linear_2950_35649" x1="0" y1="0" x2="563.296" y2="991.667" gradientUnits="userSpaceOnUse">
<stop stop-color="#5E00FF"/>
<stop offset="1" stop-color="#B589FF"/>
</linearGradient>
<linearGradient id="paint1_linear_2950_35649" x1="1310.53" y1="-82.8828" x2="1310.53" y2="588.007" gradientUnits="userSpaceOnUse">
<stop stop-color="white"/>
<stop offset="1" stop-color="white" stop-opacity="0"/>
</linearGradient>
<linearGradient id="paint2_linear_2950_35649" x1="1257.03" y1="-94" x2="1257.03" y2="321.434" gradientUnits="userSpaceOnUse">
<stop stop-color="white"/>
<stop offset="1" stop-color="white" stop-opacity="0"/>
</linearGradient>
<clipPath id="clip0_2950_35649">
<rect width="1200" height="630" fill="white"/>
</clipPath>
</defs>
</svg>
