<?xml version="1.0" encoding="UTF-8"?>
<svg id="Layer_1" data-name="Layer 1" xmlns="http://www.w3.org/2000/svg" width="210" height="84" viewBox="0 0 210 84">
  <defs>
    <style>
      .cls-1 {
        fill: #f90;
      }

      .cls-1, .cls-2 {
        stroke-width: 0px;
      }

      .cls-2 {
        fill: #221f1f;
      }
    </style>
  </defs>
  <path id="path8" class="cls-1" d="M121.15,53.4c-7.8,5.75-19.1,8.81-28.83,8.81-13.64,0-25.92-5.05-35.22-13.44-.73-.66-.08-1.56.8-1.05,10.03,5.83,22.43,9.34,35.23,9.34,8.64,0,18.14-1.79,26.88-5.5,1.32-.56,2.42.86,1.13,1.82"/>
  <path id="path10" class="cls-1" d="M124.39,49.69c-.99-1.27-6.59-.6-9.1-.3-.77.09-.88-.57-.19-1.05,4.46-3.14,11.77-2.23,12.62-1.18.85,1.06-.22,8.39-4.41,11.88-.64.54-1.26.25-.97-.46.94-2.35,3.05-7.61,2.05-8.89"/>
  <path id="path12" class="cls-2" d="M115.47,26.2v-3.05c0-.46.35-.77.77-.77h13.65c.44,0,.79.32.79.77v2.61c0,.44-.37,1.01-1.03,1.92l-7.07,10.1c2.63-.06,5.4.33,7.78,1.67.54.3.68.75.72,1.19v3.25c0,.44-.49.96-1,.69-4.2-2.2-9.78-2.44-14.42.02-.47.26-.97-.26-.97-.7v-3.09c0-.5,0-1.34.5-2.1l8.19-11.75h-7.13c-.44,0-.79-.31-.79-.77"/>
  <path id="path14" class="cls-2" d="M65.68,45.22h-4.15c-.4-.03-.71-.33-.74-.71v-21.31c0-.43.36-.77.8-.77h3.87c.4.02.72.33.75.71v2.79h.08c1.01-2.69,2.91-3.95,5.47-3.95s4.22,1.26,5.39,3.95c1-2.69,3.29-3.95,5.73-3.95,1.74,0,3.64.72,4.81,2.33,1.31,1.79,1.05,4.4,1.05,6.68v13.45c0,.43-.36.77-.81.77h-4.15c-.41-.03-.75-.36-.75-.77v-11.29c0-.9.08-3.14-.12-3.99-.31-1.43-1.24-1.83-2.44-1.83-1,0-2.06.67-2.48,1.75-.43,1.07-.39,2.87-.39,4.08v11.29c0,.43-.36.77-.8.77h-4.15c-.42-.03-.75-.36-.75-.77v-11.29c0-2.38.39-5.88-2.56-5.88s-2.87,3.41-2.87,5.88v11.29c0,.43-.36.77-.8.77"/>
  <path id="path16" class="cls-2" d="M142.43,21.99c6.16,0,9.5,5.29,9.5,12.02s-3.69,11.66-9.5,11.66-9.34-5.29-9.34-11.88,3.33-11.79,9.34-11.79M142.46,26.34c-3.06,0-3.25,4.17-3.25,6.77s-.04,8.16,3.22,8.16,3.37-4.49,3.37-7.22c0-1.8-.08-3.95-.62-5.65-.47-1.48-1.4-2.06-2.72-2.06"/>
  <path id="path18" class="cls-2" d="M159.91,45.22h-4.13c-.41-.03-.75-.36-.75-.77v-21.32c.03-.39.37-.69.79-.69h3.85c.36.02.66.26.74.6v3.26h.08c1.16-2.91,2.79-4.3,5.66-4.3,1.86,0,3.68.67,4.85,2.51,1.09,1.71,1.09,4.57,1.09,6.63v13.41c-.05.37-.39.67-.8.67h-4.16c-.38-.03-.69-.31-.74-.67v-11.57c0-2.33.27-5.74-2.6-5.74-1.01,0-1.94.68-2.4,1.71-.58,1.3-.66,2.6-.66,4.04v11.48c0,.43-.37.77-.81.77"/>
  <g id="use28">
    <path id="path30" class="cls-2" d="M104.59,35.04v-.9c-3,0-6.17.64-6.17,4.18,0,1.79.93,3.01,2.52,3.01,1.17,0,2.21-.72,2.87-1.89.82-1.44.78-2.79.78-4.4M108.78,45.16c-.27.25-.67.26-.98.1-1.38-1.14-1.62-1.68-2.38-2.77-2.28,2.32-3.89,3.02-6.84,3.02-3.49,0-6.21-2.15-6.21-6.47,0-3.37,1.83-5.66,4.43-6.79,2.25-.99,5.4-1.17,7.81-1.44v-.54c0-.99.08-2.15-.5-3.01-.51-.77-1.48-1.08-2.33-1.08-1.58,0-3,.81-3.34,2.49-.07.37-.34.74-.72.76l-4.03-.43c-.34-.08-.71-.35-.62-.87.93-4.88,5.34-6.35,9.29-6.35,2.02,0,4.66.54,6.25,2.07,2.02,1.89,1.83,4.4,1.83,7.14v6.47c0,1.94.81,2.8,1.57,3.85.27.37.33.82-.01,1.1-.85.71-2.35,2.02-3.18,2.76h-.01"/>
  </g>
  <path id="path30-2" data-name="path30" class="cls-2" d="M50.15,35.04v-.9c-3,0-6.17.64-6.17,4.18,0,1.79.93,3.01,2.52,3.01,1.17,0,2.21-.72,2.87-1.89.82-1.44.78-2.79.78-4.4M54.34,45.16c-.27.25-.67.26-.98.1-1.38-1.14-1.62-1.68-2.38-2.77-2.28,2.32-3.89,3.02-6.84,3.02-3.49,0-6.21-2.15-6.21-6.47,0-3.37,1.83-5.66,4.43-6.79,2.25-.99,5.4-1.17,7.81-1.44v-.54c0-.99.08-2.15-.5-3.01-.51-.77-1.48-1.08-2.33-1.08-1.58,0-3,.81-3.34,2.49-.07.37-.34.74-.72.76l-4.03-.43c-.34-.08-.71-.35-.62-.87.93-4.88,5.34-6.35,9.29-6.35,2.02,0,4.66.54,6.25,2.07,2.02,1.89,1.83,4.4,1.83,7.14v6.47c0,1.94.81,2.8,1.57,3.85.27.37.33.82-.01,1.1-.85.71-2.35,2.02-3.18,2.76h-.01"/>
</svg>