<?xml version="1.0" encoding="UTF-8"?>
<svg id="Layer_1" data-name="Layer 1" xmlns="http://www.w3.org/2000/svg" width="210" height="84" xmlns:xlink="http://www.w3.org/1999/xlink" viewBox="0 0 210 84">
  <defs>
    <style>
      .cls-1 {
        fill: url(#linear-gradient);
      }

      .cls-1, .cls-2, .cls-3, .cls-4, .cls-5, .cls-6 {
        stroke-width: 0px;
      }

      .cls-2 {
        fill: #000048;
      }

      .cls-7 {
        clip-path: url(#clippath-2);
      }

      .cls-8 {
        clip-path: url(#clippath-6);
      }

      .cls-3 {
        fill: none;
      }

      .cls-9 {
        clip-path: url(#clippath-1);
      }

      .cls-10 {
        clip-path: url(#clippath-4);
      }

      .cls-4 {
        fill: url(#linear-gradient-2);
      }

      .cls-5 {
        fill: url(#linear-gradient-3);
      }

      .cls-11 {
        clip-path: url(#clippath);
      }

      .cls-12 {
        clip-path: url(#clippath-3);
      }

      .cls-13 {
        clip-path: url(#clippath-5);
      }

      .cls-6 {
        fill: url(#linear-gradient-4);
      }
    </style>
    <clipPath id="clippath">
      <rect class="cls-3" x="63.34" y="29.39" width="122" height="26.66"/>
    </clipPath>
    <clipPath id="clippath-1">
      <rect class="cls-3" x="63.34" y="29.39" width="122" height="26.66"/>
    </clipPath>
    <clipPath id="clippath-2">
      <rect class="cls-3" x="24.66" y="27.62" width="34.05" height="28.75"/>
    </clipPath>
    <clipPath id="clippath-3">
      <polygon class="cls-3" points="24.66 42 34.66 56.38 44.98 50.17 39.16 42 24.66 42"/>
    </clipPath>
    <linearGradient id="linear-gradient" x1="-379.92" y1="-378.65" x2="-379.27" y2="-378.65" gradientTransform="translate(11842.76 8371.69) scale(31.11 21.98)" gradientUnits="userSpaceOnUse">
      <stop offset="0" stop-color="#3d54ce"/>
      <stop offset="1" stop-color="#35cacf"/>
    </linearGradient>
    <clipPath id="clippath-4">
      <polygon class="cls-3" points="34.66 56.38 48.9 56.38 58.7 42 34.66 56.38"/>
    </clipPath>
    <linearGradient id="linear-gradient-2" x1="-383.67" y1="-378.65" x2="-383.01" y2="-378.65" gradientTransform="translate(14171.84 8371.69) scale(36.85 21.98)" gradientUnits="userSpaceOnUse">
      <stop offset="0" stop-color="#13457d"/>
      <stop offset="1" stop-color="#279698"/>
    </linearGradient>
    <clipPath id="clippath-5">
      <polygon class="cls-3" points="34.66 27.62 24.66 42 39.16 42 44.98 33.83 34.66 27.62"/>
    </clipPath>
    <linearGradient id="linear-gradient-3" x1="-379.94" y1="-378.3" x2="-379.29" y2="-378.3" gradientTransform="translate(11852.84 8349.74) scale(31.13 21.98)" gradientUnits="userSpaceOnUse">
      <stop offset="0" stop-color="#090086"/>
      <stop offset="1" stop-color="#2f96a9"/>
    </linearGradient>
    <clipPath id="clippath-6">
      <polygon class="cls-3" points="34.66 27.62 58.7 42 48.9 27.62 34.66 27.62"/>
    </clipPath>
    <linearGradient id="linear-gradient-4" x1="-383.67" y1="-378.3" x2="-383.01" y2="-378.3" gradientTransform="translate(14171.84 8349.74) scale(36.85 21.98)" gradientUnits="userSpaceOnUse">
      <stop offset="0" stop-color="#3b62ca"/>
      <stop offset="1" stop-color="#93dfe3"/>
    </linearGradient>
  </defs>
  <g class="cls-11">
    <g class="cls-9">
      <path class="cls-2" d="M128.36,34.62h2.42v14.44h-2.42v-14.44ZM119.54,34.29c-1.57,0-3.01.52-4.18,1.5v-1.18h-2.42v14.44h2.42v-8.17c0-2.35,1.9-4.18,4.18-4.18s4.18,1.9,4.18,4.18v8.17h2.42v-8.17c0-3.66-2.94-6.6-6.6-6.6M108.1,34.55h2.42v13.92c-.07,4.12-3.4,7.45-7.51,7.51-3.27.07-6.27-2.09-7.19-5.23h2.61c.85,1.76,2.61,2.88,4.57,2.81,2.81-.07,5.03-2.35,5.16-5.16v-1.18c-3.07,2.81-7.84,2.68-10.65-.39-2.81-3.07-2.68-7.84.39-10.65,2.88-2.68,7.38-2.68,10.26,0,0,0-.07-1.63-.07-1.63ZM108.1,41.8c0-2.81-2.29-5.16-5.1-5.16s-5.16,2.29-5.16,5.1,2.29,5.16,5.16,5.16,5.1-2.29,5.1-5.1M70.86,36.64c1.96,0,3.79,1.18,4.64,2.94h2.55c-1.18-3.99-5.42-6.27-9.41-5.03-3.99,1.18-6.27,5.42-5.03,9.41,1.24,3.99,5.42,6.27,9.41,5.03,2.42-.72,4.31-2.61,5.03-5.03h-2.55c-1.18,2.55-4.25,3.66-6.8,2.48-2.55-1.18-3.66-4.25-2.48-6.8.85-1.83,2.61-3.01,4.64-3.01M94.32,41.8c0,4.18-3.4,7.51-7.51,7.51s-7.51-3.4-7.51-7.51,3.27-7.51,7.45-7.51,7.58,3.33,7.58,7.51M91.9,41.8c0-2.81-2.29-5.16-5.1-5.16s-5.16,2.29-5.16,5.1,2.29,5.16,5.1,5.16,5.16-2.29,5.16-5.1M170.64,34.29c-1.57,0-3.01.52-4.18,1.5v-1.18h-2.42v14.44h2.42v-8.17c0-2.35,1.9-4.25,4.18-4.25s4.25,1.9,4.25,4.18v8.17h2.42v-8.1c-.07-3.66-3.01-6.6-6.67-6.6M159.2,34.62h2.42v14.44h-2.42v-1.7c-3.07,2.81-7.84,2.68-10.65-.39-2.81-3.07-2.68-7.84.39-10.65,1.37-1.31,3.2-2.03,5.1-2.03s3.72.72,5.16,2.03v-1.7ZM159.2,41.8c0-2.81-2.29-5.1-5.16-5.1s-5.1,2.29-5.1,5.16,2.29,5.1,5.1,5.1c2.88-.07,5.16-2.35,5.16-5.16M185.28,36.97v-2.42h-3.59v-3.92h-2.42v13.59c0,2.68,2.16,4.84,4.84,4.84h1.18v-2.42h-1.18c-1.31,0-2.42-1.11-2.42-2.42v-7.25h3.59,0ZM129.54,29.39c-.91,0-1.57.72-1.57,1.57,0,.91.72,1.57,1.57,1.57.91,0,1.57-.72,1.57-1.57.07-.85-.65-1.57-1.57-1.57q.07,0,0,0M145.22,34.62h-12.02v2.42h8.89l-8.89,9.61v2.42h12.02v-2.42h-8.95l8.89-9.61.07-2.42h0Z"/>
    </g>
  </g>
  <g class="cls-7">
    <g>
      <g class="cls-12">
        <path class="cls-1" d="M24.66,42h20.32v14.38h-20.32v-14.38Z"/>
      </g>
      <g class="cls-10">
        <path class="cls-4" d="M34.66,42h24.05v14.38h-24.05v-14.38Z"/>
      </g>
      <g class="cls-13">
        <path class="cls-5" d="M24.66,27.62h20.32v14.38h-20.32v-14.38Z"/>
      </g>
      <g class="cls-8">
        <path class="cls-6" d="M34.66,27.62h24.05v14.38h-24.05v-14.38Z"/>
      </g>
    </g>
  </g>
</svg>