<?xml version="1.0" encoding="UTF-8"?>
<svg id="Layer_1" data-name="Layer 1" xmlns="http://www.w3.org/2000/svg" width="210" height="84" viewBox="0 0 210 84">
  <defs>
    <style>
      .cls-1 {
        fill: #0075ba;
        fill-rule: evenodd;
        stroke-width: 0px;
      }
    </style>
  </defs>
  <g id="DELL_tm_" data-name="DELL (tm)">
    <path id="D" class="cls-1" d="M43.16,24.52v35.46h16.96c7.46,0,17.01-4.75,17.01-17.75,0-14.21-11.1-17.71-21.25-17.71h-12.72ZM55.7,35.47h2.19c3.43,0,6.35,2.96,6.39,6.93,0,0,0,0,0,0-.05,3.97-2.65,6.92-6.08,6.92h-2.5v-13.86Z"/>
    <path id="L1" class="cls-1" d="M117.31,24.52v35.46h23.48v-11.21h-11.06v-24.25h-12.42Z"/>
    <path id="O" class="cls-1" d="M106.16,29.9l-17.34,10.94-3.02-2.03h0s17.74-11.3,17.74-11.3l.03.02-8.11-5.16-30.9,19.65,31.06,19.6,30.68-19.55-8.89-5.43-17.69,11.14-2.97-2.02,17.19-10.92-7.79-4.94Z"/>
    <path id="L2" class="cls-1" d="M143.02,24.52v35.42h23.48v-11.17h-11.06v-24.25h-12.42Z"/>
    <path id="T" class="cls-1" d="M161.61,24.46h2.09v.5h-.77v2.25h-.55v-2.25h-.77v-.5Z"/>
    <path id="M" class="cls-1" d="M165.15,26.88l-.67-1.66v1.96h-.51v-2.72h.85l.58,1.65.58-1.65h.85v2.72h-.51v-1.96l-.67,1.66h-.5Z"/>
  </g>
</svg>