<?xml version="1.0" encoding="UTF-8"?>
<svg id="Layer_1" data-name="Layer 1" xmlns="http://www.w3.org/2000/svg" width="210" height="84" viewBox="0 0 210 84">
  <defs>
    <style>
      .cls-1 {
        fill: #86bc24;
      }

      .cls-1, .cls-2 {
        stroke-width: 0px;
      }

      .cls-2 {
        fill: #0f0b0b;
      }
    </style>
  </defs>
  <g id="layer1">
    <g id="g3359">
      <g id="g3371">
        <path id="path3356" class="cls-1" d="M195.84,53.27c0-2.46,1.99-4.45,4.45-4.45s4.45,1.99,4.45,4.45-1.99,4.45-4.45,4.45-4.45-1.99-4.45-4.45"/>
        <path id="path3360" class="cls-2" d="M53.89,41.48c0-2.82-.54-4.91-1.63-6.27-1.09-1.36-2.74-2.04-4.96-2.04h-2.36v17.24h1.81c2.47,0,4.28-.73,5.43-2.2,1.15-1.47,1.73-3.71,1.73-6.73M62.32,41.19c0,5.14-1.38,9.09-4.14,11.87-2.76,2.78-6.64,4.17-11.65,4.17h-9.72v-30.78h10.4c4.82,0,8.55,1.26,11.17,3.79,2.62,2.53,3.94,6.17,3.94,10.95"/>
        <path id="path3362" class="cls-2" d="M89.25,57.23h7.74v-30.91h-7.74v30.91Z"/>
        <path id="path3366" class="cls-2" d="M107.86,45.7c0,1.97.26,3.47.77,4.51.52,1.03,1.38,1.55,2.59,1.55s2.05-.52,2.54-1.55c.49-1.03.74-2.54.74-4.51s-.25-3.44-.75-4.44c-.5-1-1.36-1.5-2.57-1.5s-2.04.5-2.55,1.49c-.51.99-.77,2.48-.77,4.45M122.38,45.7c0,3.75-.98,6.68-2.96,8.78-1.97,2.1-4.73,3.15-8.28,3.15s-6.11-1.07-8.12-3.22c-2.01-2.15-3.02-5.05-3.02-8.71s.99-6.65,2.96-8.72c1.97-2.07,4.74-3.11,8.3-3.11,2.2,0,4.15.48,5.84,1.44,1.69.96,2.99,2.33,3.91,4.12.92,1.79,1.37,3.88,1.37,6.27"/>
        <path id="path3370" class="cls-2" d="M125.45,57.23h7.74v-22.96h-7.74v22.96Z"/>
        <path id="path3372" class="cls-2" d="M125.45,31.5h7.74v-5.17h-7.74v5.17Z"/>
        <path id="path3376" class="cls-2" d="M148.86,51.37c1.04,0,2.29-.27,3.74-.79v5.78c-1.04.46-2.03.79-2.98.98-.94.2-2.05.29-3.32.29-2.6,0-4.47-.65-5.62-1.96-1.14-1.3-1.72-3.3-1.72-6.01v-9.46h-2.71v-5.93h2.71v-5.86l7.8-1.36v7.22h4.94v5.93h-4.94v8.94c0,1.49.7,2.23,2.1,2.23"/>
        <path id="path3380" class="cls-2" d="M166.77,51.37c1.04,0,2.29-.27,3.74-.79v5.78c-1.04.46-2.03.79-2.98.98-.94.2-2.05.29-3.32.29-2.6,0-4.47-.65-5.62-1.96s-1.72-3.3-1.72-6.01v-9.46h-2.71v-5.93h2.71v-5.95l7.8-1.27v7.22h4.94v5.93h-4.94v8.94c0,1.49.7,2.23,2.1,2.23"/>
        <path id="path3384" class="cls-2" d="M180.27,42.91c.11-1.26.47-2.18,1.08-2.77.62-.59,1.38-.88,2.28-.88.99,0,1.78.33,2.36.99.59.66.89,1.55.92,2.65h-6.65,0ZM191.18,36.57c-1.84-1.8-4.45-2.71-7.82-2.71-3.55,0-6.28,1.04-8.19,3.11-1.91,2.07-2.87,5.05-2.87,8.92s1.03,6.65,3.1,8.68c2.06,2.03,4.96,3.05,8.7,3.05,1.79,0,3.34-.12,4.63-.37,1.29-.24,2.53-.68,3.74-1.3l-1.19-5.17c-.88.36-1.71.63-2.5.82-1.14.26-2.39.4-3.75.4-1.49,0-2.67-.36-3.53-1.09-.86-.73-1.32-1.74-1.38-3.02h13.83v-3.52c0-3.39-.92-5.99-2.76-7.79"/>
        <path id="path3388" class="cls-2" d="M72.59,42.91c.11-1.26.47-2.18,1.08-2.77.61-.59,1.38-.88,2.29-.88.99,0,1.78.33,2.36.99.59.66.89,1.55.92,2.65h-6.65ZM83.5,36.57c-1.84-1.8-4.45-2.71-7.83-2.71-3.55,0-6.28,1.04-8.19,3.11-1.91,2.07-2.87,5.05-2.87,8.92s1.03,6.65,3.1,8.68c2.06,2.03,4.96,3.05,8.7,3.05,1.79,0,3.34-.12,4.63-.37,1.29-.24,2.53-.68,3.74-1.3l-1.19-5.17c-.88.36-1.71.63-2.5.82-1.14.26-2.39.4-3.75.4-1.49,0-2.67-.36-3.53-1.09-.86-.73-1.32-1.74-1.38-3.02h13.83v-3.52c0-3.39-.92-5.99-2.76-7.79"/>
      </g>
    </g>
  </g>
</svg>