<?xml version="1.0" encoding="UTF-8"?>
<svg id="Layer_1" data-name="Layer 1" xmlns="http://www.w3.org/2000/svg" width="210" height="84" viewBox="0 0 210 84">
  <defs>
    <style>
      .cls-1 {
        fill: #000;
        stroke-width: 0px;
      }
    </style>
  </defs>
  <g id="Page-1">
    <g id="Fractal_Logotype" data-name="Fractal Logotype">
      <path id="Shape" class="cls-1" d="M123.2,47.29c.06-.65.3-1.31.54-1.84,0-.06.06-.06.06-.12.06-.12.12-.24.18-.36h0c.06-.12.12-.24.24-.36.18-.24.3-.48.48-.65h0c.24-.24.48-.48.71-.65q.06-.06.12-.12c.18-.12.42-.24.65-.36.12-.06.24-.12.36-.18.12-.06.3-.12.48-.18s.36-.12.54-.18c.18-.06.42-.06.65-.06.12,0,.18-.06.3-.06h.06c2.32,0,3.51,1.13,4.52,2.68l3.45-1.67c-1.49-2.8-4.28-4.64-8.03-4.64-5.18,0-8.86,3.51-9.22,8.57v.77h0v.77c.36,5.06,4.1,8.57,9.22,8.57,3.81,0,6.54-1.84,8.03-4.64l-3.45-1.67c-1.01,1.55-2.2,2.68-4.52,2.68h-.06c-.12,0-.18,0-.3-.06-.24,0-.42,0-.65-.06-.18-.06-.36-.12-.54-.18-.18-.06-.3-.12-.48-.18-.12-.06-.24-.12-.36-.18-.24-.12-.42-.24-.65-.36q-.06-.06-.12-.12c-.24-.18-.54-.42-.71-.65h0c-.18-.18-.36-.42-.54-.65-.06-.12-.18-.24-.24-.36h0c-.06-.12-.12-.24-.18-.36,0-.06-.06-.06-.06-.12-.24-.59-.48-1.19-.54-1.84v-.06c0-.24-.06-.42-.06-.65s.12-.24.12-.48c0,.06,0,0,0,0ZM72.76,56.87h4.34v-9.34h9.22v-4.22h-9.22v-7.67h9.87v-4.22h-14.22v25.46ZM142.71,33.49h-4.22v23.38h4.22v-13.62h4.4v-4.22h-4.4v-5.53ZM112.85,41.46c-1.31-1.84-3.57-2.86-6.07-2.86-4.94,0-8.68,4.1-8.68,9.34s3.81,9.34,8.68,9.34c2.5,0,4.76-1.19,6.07-3.03v2.56h4.16v-17.85h-4.16v2.5ZM107.68,53.48c-3.03,0-5.35-2.5-5.35-5.53s2.32-5.53,5.35-5.53,5.35,2.5,5.35,5.53-2.38,5.53-5.35,5.53ZM88.64,56.87h4.22v-13.62h4.4v-4.22h-8.63v17.85ZM162.7,41.46c-1.31-1.84-3.57-2.86-6.07-2.86-4.94,0-8.68,4.1-8.68,9.34s3.81,9.34,8.68,9.34c2.5,0,4.76-1.19,6.07-3.03v2.56h4.16v-17.85h-4.16v2.5ZM157.53,53.48c-3.03,0-5.35-2.5-5.35-5.53s2.32-5.53,5.35-5.53,5.35,2.5,5.35,5.53-2.32,5.53-5.35,5.53ZM169.9,56.87h4.22v-25.52h-4.22v25.52Z"/>
      <polygon id="Shape-2" data-name="Shape" class="cls-1" points="35.88 58.95 35.88 50.51 50.57 42 57.95 46.22 43.25 54.73 43.25 63.24 35.88 58.95"/>
      <polygon id="Shape-3" data-name="Shape" class="cls-1" points="35.88 37.72 35.88 29.27 50.57 20.76 57.95 24.99 43.25 33.49 43.25 42 35.88 37.72"/>
    </g>
  </g>
</svg>