<?xml version="1.0" encoding="UTF-8"?>
<svg id="Layer_1" data-name="Layer 1" xmlns="http://www.w3.org/2000/svg" width="210" height="84" viewBox="0 0 210 84">
  <defs>
    <style>
      .cls-1 {
        fill: #4285f4;
      }

      .cls-1, .cls-2, .cls-3, .cls-4 {
        stroke-width: 0px;
      }

      .cls-2 {
        fill: #fbbc05;
      }

      .cls-3 {
        fill: #34a853;
      }

      .cls-4 {
        fill: #ea4335;
      }
    </style>
  </defs>
  <path class="cls-4" d="M95.35,43.16c0,6.34-4.96,11.01-11.05,11.01s-11.05-4.67-11.05-11.01,4.96-11.01,11.05-11.01,11.05,4.63,11.05,11.01ZM90.52,43.16c0-3.96-2.87-6.67-6.21-6.67s-6.21,2.71-6.21,6.67,2.87,6.67,6.21,6.67,6.21-2.76,6.21-6.67Z"/>
  <path class="cls-2" d="M119.19,43.16c0,6.34-4.96,11.01-11.05,11.01s-11.05-4.67-11.05-11.01,4.96-11.01,11.05-11.01,11.05,4.63,11.05,11.01ZM114.35,43.16c0-3.96-2.87-6.67-6.21-6.67s-6.21,2.71-6.21,6.67,2.87,6.67,6.21,6.67,6.21-2.76,6.21-6.67Z"/>
  <path class="cls-1" d="M142.03,32.81v19.77c0,8.13-4.8,11.46-10.47,11.46-5.34,0-8.55-3.57-9.76-6.49l4.21-1.75c.75,1.79,2.59,3.91,5.55,3.91,3.63,0,5.88-2.24,5.88-6.45v-1.58h-.17c-1.08,1.34-3.17,2.5-5.8,2.5-5.51,0-10.55-4.8-10.55-10.97s5.04-11.05,10.55-11.05c2.63,0,4.71,1.17,5.8,2.46h.17v-1.79h4.59ZM137.78,43.2c0-3.88-2.59-6.71-5.88-6.71s-6.13,2.84-6.13,6.71,2.8,6.63,6.13,6.63,5.88-2.8,5.88-6.63Z"/>
  <path class="cls-3" d="M149.6,21.22v32.27h-4.72V21.22h4.72Z"/>
  <path class="cls-4" d="M167.98,46.78l3.75,2.5c-1.21,1.79-4.13,4.88-9.18,4.88-6.26,0-10.93-4.84-10.93-11.01,0-6.55,4.71-11.01,10.39-11.01s8.51,4.55,9.42,7.01l.5,1.25-14.72,6.1c1.13,2.21,2.88,3.34,5.34,3.34s4.17-1.21,5.42-3.05h0ZM156.43,42.82l9.84-4.09c-.54-1.38-2.17-2.33-4.09-2.33-2.46,0-5.88,2.17-5.75,6.42Z"/>
  <path class="cls-1" d="M55.4,40.29v-4.67h15.75c.15.81.23,1.78.23,2.82,0,3.51-.96,7.84-4.05,10.93-3,3.13-6.84,4.8-11.93,4.8-9.42,0-17.35-7.68-17.35-17.1s7.92-17.1,17.35-17.1c5.21,0,8.93,2.05,11.72,4.71l-3.3,3.3c-2-1.88-4.71-3.34-8.43-3.34-6.88,0-12.26,5.55-12.26,12.43s5.38,12.43,12.26,12.43c4.46,0,7.01-1.79,8.63-3.42,1.32-1.32,2.19-3.21,2.53-5.78h-11.17Z"/>
</svg>