<?xml version="1.0" encoding="UTF-8"?>
<svg id="Layer_1" data-name="Layer 1" xmlns="http://www.w3.org/2000/svg" width="210" height="84" viewBox="0 0 210 84">
  <defs>
    <style>
      .cls-1 {
        fill: #006cb7;
        stroke-width: 0px;
      }
    </style>
  </defs>
  <g id="_006cb7ff" data-name="#006cb7ff">
    <path class="cls-1" d="M104.44,32.34c7.57-1.52,15.39-1.5,23.04-.58,3.16.41,6.45.83,9.24,2.5,1.63.94,2.89,2.66,2.94,4.58-5.21.11-10.43.05-15.64.04-1.56-1.82-4.05-2.39-6.34-2.49-3.07-.1-6.26.13-9.07,1.47-2.38,1.13-4.42,3.21-5.04,5.82-.31,1.19.46,2.41,1.5,2.95,2.01,1.03,4.32,1.15,6.54,1.23,2.9.12,5.93-.43,8.39-2.04.24-.14.46-.4.77-.36,5.27-.02,10.54-.01,15.82.01-1.82,2.03-4.23,3.43-6.74,4.41-3.15,1.24-6.5,1.89-9.84,2.33-3.71.44-7.45.71-11.19.66-5.06-.03-10.17-.36-15.05-1.77-2.25-.7-4.52-1.78-5.99-3.69-1.22-1.52-1.39-3.72-.59-5.47,1.04-2.3,3.07-3.97,5.2-5.22,3.73-2.14,7.85-3.51,12.05-4.37Z"/>
    <path class="cls-1" d="M38.1,31.85c5.48-.09,10.96.05,16.44.03-1.01,2.28-2.03,4.55-3.04,6.82,5.33,0,10.67-.02,16,.01,1.04-2.27,2.02-4.57,3.06-6.84,5.63,0,11.26-.02,16.9,0-3.06,6.75-6.1,13.51-9.14,20.27-4.72.1-9.44.04-14.16.05-.89,0-1.79.03-2.67-.09,1.25-2.65,2.43-5.34,3.62-8.01-5.35,0-10.7,0-16.05,0-1.16,2.68-2.36,5.35-3.48,8.04-5.54.12-11.09.07-16.63.04,3.01-6.8,6.13-13.54,9.15-20.33Z"/>
    <path class="cls-1" d="M147.56,31.82h16.99c-2.29,5.15-4.6,10.28-6.92,15.42,7.81,0,15.61.02,23.42.02-.74,1.65-1.48,3.29-2.23,4.94-13.46.01-26.92.01-40.38,0,3-6.81,6.07-13.59,9.11-20.38Z"/>
  </g>
</svg>