<?xml version="1.0" encoding="UTF-8"?>
<svg id="Layer_1" data-name="Layer 1" xmlns="http://www.w3.org/2000/svg" width="210" height="84" xmlns:xlink="http://www.w3.org/1999/xlink" viewBox="0 0 210 84">
  <defs>
    <style>
      .cls-1 {
        fill: #645957;
      }

      .cls-1, .cls-2, .cls-3 {
        stroke-width: 0px;
      }

      .cls-2 {
        fill: none;
      }

      .cls-4 {
        clip-path: url(#clippath);
      }

      .cls-3 {
        fill: url(#radial-gradient);
      }
    </style>
    <clipPath id="clippath">
      <path class="cls-2" d="M51.47,56.99c-.18,0-.56.07-.88.28-.15.1-.26.25-.23.43.04.22.21.29.42.31.3.02.66-.05.94-.24.15-.1.26-.29.24-.47-.03-.24-.24-.31-.47-.31h-.02ZM56.96,57c-.23.15-.36.39-.32.57.05.23.26.34.56.34.36,0,.83-.15,1.11-.34.2-.14.34-.35.28-.57-.07-.24-.33-.33-.52-.34h-.05c-.29,0-.74.11-1.07.33M53.67,56.23c-.17.16-.25.36-.19.52.09.23.26.25.44.25.36,0,1.2-.25,1.6-.65.12-.12.2-.31.16-.48-.05-.19-.26-.28-.44-.28-.37,0-1.21.31-1.58.64M47.39,55.48c-.19,0-.6.06-.94.26-.16.09-.29.25-.28.44.02.23.19.31.41.33.32.03.7-.02,1.02-.21.16-.1.31-.29.29-.48-.01-.25-.24-.34-.49-.34h-.01ZM49.29,54.85c-.2.17-.29.39-.23.57.08.26.28.29.48.3.4.02,1.35-.21,1.81-.63.14-.13.24-.34.2-.52-.05-.22-.28-.32-.47-.33h-.05c-.43,0-1.33.28-1.74.61M58.69,53.61c-.41.05-1.29.52-1.64.94-.17.2-.22.43-.13.6.13.24.33.23.53.2.4-.05,1.29-.45,1.66-.95.12-.16.17-.38.1-.55-.08-.18-.26-.25-.44-.25h-.09ZM49.7,51.19c-.2.19-.29.42-.22.61.1.26.31.28.52.28.42,0,1.4-.28,1.86-.75.15-.14.23-.37.18-.55-.06-.23-.31-.32-.51-.32-.43,0-1.41.36-1.83.74M59.86,40.45c-.25.11-.52.3-.74.53-.23.23-.41.5-.48.77-.06.21-.03.43.07.54.12.15.34.17.51.15.29-.05.62-.26.89-.54.27-.28.48-.63.55-.96.05-.26-.03-.41-.13-.5-.07-.06-.17-.09-.27-.09s-.24.04-.39.1M60.93,39.33c0,.24.16.45.41.45.48,0,.95-.58.95-1.04,0-.24-.16-.45-.41-.45-.48,0-.95.58-.95,1.04M50.94,38.84c0,.31.28.43.54.43.64,0,1.96-.83,1.96-1.53,0-.32-.29-.43-.57-.43-.62,0-1.94.85-1.94,1.53M54.59,36.19h0c-.28.12-.66.43-.66.77,0,.22.2.33.41.33.42,0,1.07-.4,1.07-.87,0-.22-.2-.33-.4-.33-.14,0-.28.04-.41.1M59.36,35.45c-.13.15-.25.31-.34.48-.09.17-.14.33-.15.48-.01.24.12.44.36.44.15,0,.31-.06.47-.16.16-.1.32-.24.46-.4.14-.16.27-.33.35-.5.09-.17.14-.34.14-.48,0-.25-.16-.37-.39-.37-.29,0-.63.22-.9.51M60.56,34c0,.2.12.36.33.36.44,0,.89-.67.89-1.08,0-.2-.11-.36-.32-.36-.44,0-.89.67-.89,1.08M54.5,32.37c-.69,0-2.05.8-2.08,1.54,0,.28.22.39.47.4.68.02,2.08-.79,2.1-1.53,0-.27-.22-.4-.47-.41h-.03ZM55.58,32.03c-.02.24.2.38.41.4.56.05,1.73-.46,1.78-1.1.02-.25-.19-.38-.41-.4h-.08c-.58,0-1.66.49-1.71,1.09M58.69,30.62c-.02.22.19.33.38.35.42.04,1.22-.3,1.27-.77.02-.22-.19-.33-.38-.35h-.08c-.43,0-1.14.32-1.19.77M62.81,28.72v.12c3.87,4.31,2.28,10.59-.52,13.84-2.47,2.87-5.67,4.88-8.56,6.45-.22.12-.54.28-.71.45-.27.27-.35.52-.23.78.11.25.34.35.73.31.22-.03.71-.19,1.02-.35,2.7-1.37,5.53-3.28,7.71-5.71,2.67-2.98,4.38-6.76,3.68-11.33l.12.17c1.46,3.62.25,8.16-2.98,12.19-2.28,2.84-5.57,5.43-9.63,7.25-.31.14-.77.38-.94.73-.09.17-.08.38.01.54.07.13.2.23.37.24.52.04,1.02-.23,1.48-.46,6.5-3.21,13.59-9.08,13.2-17.76l.1.23c.7,3.56-.1,6.72-1.59,9.38-1.27,2.26-3.04,4.16-4.81,5.63-.95.79-1.33,1.24-1.1,1.63.23.4.84.21,1.21,0,.7-.42,1.35-1.05,1.83-1.54,2.91-2.95,5.08-6.12,5.58-11.4.02.26.06.54.07.71.1,2.68-.43,5.12-1.41,7.24-1.49,3.2-4.02,5.7-7.02,7.32-.62.34-.86.71-.72,1.07.08.21.27.31.5.33.28.03.5-.06.75-.19,5.47-2.95,8.84-8.44,8.84-14.71,0-4.58-2.01-9.47-6.46-12.98-.12-.1-.28-.18-.4-.21h-.02s-.09.04-.09.04ZM49.91,27.83c-3.79,1.99-6.91,4.82-8.91,8.31-1.67,2.91-2.56,6.28-2.43,10-.01-.04-.04-.14-.07-.24-.32-1.23-.5-2.51-.5-3.78,0-1.74.34-3.43.94-5.02.77-2.04,1.98-3.93,3.46-5.55.49-.53,1.51-1.38,1.76-1.67.19-.22.32-.51.21-.74-.09-.17-.24-.23-.44-.23-.83,0-2.09,1.28-2.63,1.86-2.79,3.02-4.41,6.97-4.41,11.1,0,4.84,2.06,9.92,6.77,13.42.2.15.56.37.86.48l.14-.04-.02-.14c-.22-.25-.36-.43-.43-.64-.05-.16-.01-.42.01-.51.4-1.85,2.23-3.08,4.16-4.44,1.19-.84,6.35-3.63,8.69-5.52.77-.62,1.08-.96,1.11-1.29.02-.17-.04-.34-.15-.45-.08-.07-.17-.12-.29-.14-.39-.04-.84.1-1.36.52-2.69,2.17-6.74,4.29-9.59,6.53-1.66,1.31-2.91,2.66-3.25,4.09l-.09-.08c.43-5.31,7.47-8.77,11.09-11.79.89-.74,3.64-2.88,4.07-3.84.14-.32.07-.63-.13-.76-.15-.1-.35-.14-.54-.1-.43.09-.94.52-1.48,1.03-4.48,4.24-8.21,6.14-10.76,8.86-1.42,1.51-2.47,3.28-3.09,5.84l-.09-.09c.23-3.88,2.73-7.68,5.68-10.32,1.05-.94,1.75-1.49,2.18-1.9.26-.24.43-.6.24-.92-.14-.25-.44-.29-.7-.26-.43.06-.73.29-1.04.54-2.07,1.64-3.84,3.69-5.13,6.01-1.02,1.83-1.73,3.83-2.07,5.94l-.08-.1c.23-5.92,2.94-10.24,6.72-13.66.91-.82,1.72-1.37,2.68-2.12.74-.58.89-1.08.7-1.4-.18-.29-.51-.29-.92-.16-.78.25-1.59.97-2.64,1.9-2.37,2.13-4.28,4.38-5.57,7.12-.98,2.09-1.6,4.46-1.78,7.27l-.08-.11c-.07-.71-.05-1.66,0-2.34.19-2.76.61-8.52,8.5-14.94,1.41-1.14,3.73-2.49,5.38-3.34.5-.26,1-.48,1.47-.8.28-.18.44-.46.35-.74-.09-.28-.34-.33-.6-.33-.53,0-.97.24-1.43.47-3.67,1.82-7.86,4.52-10.81,8.6-2.24,3.08-3.76,6.96-3.82,11.83l-.07-.14c-.19-1.17-.24-2.39-.23-3.23.15-7.64,4.66-12.97,10.88-16.63.52-.31,1.05-.64,1.05-1.1,0-.3-.22-.46-.51-.46s-.53.09-.96.31M46.13,27.34c-.62.07-1.25.46-1.4.91-.03.1-.06.26.02.39.08.12.19.15.33.16.49.04,1.27-.35,1.51-.82.07-.13.11-.3.03-.45-.05-.09-.19-.19-.41-.19h-.09ZM58.43,27.83c-.02.29.34.38.56.4.43.03,1.38-.22,1.42-.74.02-.28-.34-.38-.56-.4h-.08c-.45,0-1.3.25-1.34.74M48.4,26.39c-.44,0-.93.22-1.07.53l-.02.27.22.14c.34.07.93-.14,1.14-.46.06-.09.1-.2.06-.31-.03-.08-.14-.17-.33-.17h0ZM52.97,26.85c.03.25.24.35.45.37.51.05,1.81-.25,1.79-.84,0-.27-.24-.35-.45-.37h-.15c-.64,0-1.69.36-1.64.85"/>
    </clipPath>
    <radialGradient id="radial-gradient" cx="-668.43" cy="863.84" fx="-668.43" fy="863.84" r="1.14" gradientTransform="translate(-18946.78 24614.72) rotate(180) scale(28.45)" gradientUnits="userSpaceOnUse">
      <stop offset="0" stop-color="#f55600"/>
      <stop offset=".1" stop-color="#f04b0e"/>
      <stop offset=".29" stop-color="#e32f33"/>
      <stop offset=".55" stop-color="#d0026f"/>
      <stop offset=".96" stop-color="#5a0067"/>
      <stop offset="1" stop-color="#4e0067"/>
    </radialGradient>
  </defs>
  <path class="cls-1" d="M160.55,44.76c0,.5-.35.87-.85.87h-7.02v.36c0,2.08.82,3.68,2.9,3.68,1.25,0,2.09-.19,3.21-.72.12-.06.24-.1.38-.1.54,0,.9.5.9,1.01,0,.39-.19.62-.51.81-1.12.68-2.78.93-4.06.93-3.42,0-5.07-2.4-5.07-5.66v-1.98c0-3.21,1.7-5.66,5.07-5.66s5.04,2.12,5.04,5.4v1.05ZM158.37,43.43c0-1.94-.67-3.27-2.8-3.27-1.97,0-2.88,1.55-2.88,3.47v.23h5.68v-.44ZM173.12,44.76c0,.5-.35.87-.85.87h-7.02v.36c0,2.08.82,3.68,2.9,3.68,1.26,0,2.09-.19,3.22-.72.12-.06.24-.1.38-.1.54,0,.9.5.9,1.01,0,.39-.19.62-.51.81-1.12.68-2.77.93-4.06.93-3.42,0-5.07-2.4-5.07-5.66v-1.98c0-3.21,1.7-5.66,5.07-5.66s5.04,2.12,5.04,5.4v1.05ZM170.94,43.43c0-1.94-.67-3.27-2.8-3.27-1.97,0-2.88,1.55-2.88,3.47v.23h5.68v-.44ZM95.3,33.48c0-.62-.49-1.08-1.11-1.08-.49,0-.86.19-1.08.64l-5.76,12.09-5.73-12.03c-.23-.49-.6-.69-1.13-.69-.62,0-1.1.45-1.1,1.08v17.07c0,.58.48,1.06,1.05,1.06s1.08-.47,1.08-1.06v-12.96l4.76,10.1c.19.42.6.67,1.05.67s.86-.25,1.06-.67l4.76-10.13v12.96c0,.59.49,1.08,1.08,1.08s1.08-.49,1.08-1.08v-17.05ZM101.7,34.22c0-.74-.61-1.31-1.34-1.31s-1.31.59-1.31,1.31.59,1.31,1.31,1.31,1.34-.58,1.34-1.31M101.5,50.47v-11.03c0-.63-.5-1.13-1.13-1.13s-1.1.52-1.1,1.13v11.03c0,.62.47,1.13,1.1,1.13s1.13-.49,1.13-1.13M115.56,50.47v-7.46c0-2.88-1.12-4.71-4.22-4.71-1.51,0-2.96.41-4.01,1.54-.33-.79-1.07-1.39-1.95-1.39-.62,0-1.06.32-1.11.82-.04.56.19.76.67,1.05.36.22.56.75.56,1.47v8.67c0,.61.52,1.13,1.13,1.13s1.13-.5,1.13-1.13v-8.41c.65-1.12,1.85-1.62,3.11-1.62,1.9,0,2.44,1.03,2.44,2.78v7.25c0,.62.47,1.13,1.11,1.13s1.13-.49,1.13-1.13M128.73,51.6c-.73,0-1.5-.5-1.85-1.13-.96.73-2.17,1.13-3.37,1.13-3.41,0-4.76-1.96-4.76-5.19v-2.34c0-3.16,1.01-5.76,4.6-5.76,1.09,0,2.21.35,3.09,1v-5.38c0-.63.51-1.1,1.13-1.1s1.11.49,1.11,1.1v14.32c0,2.08,1.16,1.25,1.16,2.37,0,.66-.49.98-1.11.98M126.44,41.45c-.68-.7-1.69-1.18-2.68-1.18-2.17,0-2.75,1.56-2.75,3.47v2.8c0,1.99.69,3.11,2.8,3.11.96,0,1.92-.46,2.62-1.08v-7.12ZM138.47,51.45c.56,0,1.03-.47,1.03-1.03s-.47-1.03-1.03-1.03h-.51c-2.38,0-2.49-1.52-2.49-3.52v-5.48h3.01c.52,0,.98-.42.98-.95s-.44-.98-.98-.98h-3.01v-2.65c0-.61-.48-1.13-1.11-1.13s-1.13.52-1.13,1.13v2.65h-1.05c-.54,0-.98.44-.98.98s.46.95.98.95h1.05v5.5c0,3.2.83,5.55,4.47,5.55h.77ZM142.02,38.46c-.62,0-1.06.32-1.11.82-.05.56.19.76.67,1.05.36.22.56.75.56,1.47v8.67c0,.61.52,1.13,1.13,1.13s1.13-.5,1.13-1.13c0-2.55-.01-5.11,0-7.66,0-.11.16-.57.21-.69.47-1.18,1.43-1.65,2.65-1.65.45,0,.85.06,1.29.16l.3.04c.61,0,1.06-.55,1.06-1.14,0-1.12-1.43-1.21-2.26-1.21-1.47,0-2.69.55-3.55,1.77-.31-.88-1.07-1.62-2.08-1.62"/>
  <g class="cls-4">
    <rect class="cls-3" x="30.37" y="19.05" width="45.92" height="45.92" transform="translate(-14.08 50.01) rotate(-45)"/>
  </g>
</svg>