<?xml version="1.0" encoding="UTF-8"?>
<svg id="Layer_1" data-name="Layer 1" xmlns="http://www.w3.org/2000/svg" width="210" height="84" viewBox="0 0 210 84">
  <defs>
    <style>
      .cls-1 {
        fill: #c74634;
        stroke-width: 0px;
      }
    </style>
  </defs>
  <path class="cls-1" d="M94.35,45.08h10.43l-5.51-8.9-10.13,16.07h-4.61l12.32-19.28c.93-1.33,2.76-1.66,4.09-.73.27.19.51.42.7.69l12.35,19.31h-4.61l-2.17-3.59h-10.55l-2.3-3.58M142.23,48.66v-16.75h-3.91v18.4c0,.52.21,1.01.58,1.37.37.38.89.6,1.42.6h17.79l2.32-3.59h-18.23M77.51,45.67c3.8,0,6.88-3.08,6.88-6.88s-3.08-6.88-6.88-6.88h-17.11v20.34h3.91v-16.74h12.96c1.82,0,3.29,1.47,3.29,3.29s-1.47,3.29-3.29,3.29h-11.03l11.68,10.16h5.67l-7.84-6.58h1.76M36.36,52.26h11.82c5.62-.15,10.05-4.82,9.9-10.43-.14-5.41-4.49-9.76-9.9-9.9h-11.82c-5.62-.15-10.29,4.29-10.43,9.9-.15,5.62,4.29,10.29,9.9,10.43.18,0,.35,0,.53,0M47.91,48.68h-11.29c-3.63-.12-6.49-3.16-6.37-6.79.11-3.47,2.9-6.26,6.37-6.37h11.29c3.63-.12,6.68,2.73,6.79,6.37.12,3.63-2.73,6.68-6.37,6.79-.14,0-.28,0-.42,0M122.16,52.26h12.07l2.29-3.58h-14.09c-3.63.12-6.68-2.73-6.79-6.37-.12-3.63,2.73-6.68,6.37-6.79.14,0,.28,0,.42,0h11.46l2.31-3.59h-14.04c-5.62-.15-10.29,4.29-10.43,9.9-.15,5.62,4.29,10.29,9.9,10.43.18,0,.35,0,.53,0M169.98,48.68c-2.95,0-5.54-1.96-6.34-4.79h16.71l2.3-3.59h-19.01c.8-2.84,3.39-4.79,6.34-4.79h11.47l2.29-3.59h-14.03c-5.62.15-10.05,4.82-9.9,10.43.14,5.41,4.49,9.76,9.9,9.9h12.07l2.29-3.58h-14.1"/>
</svg>