<?xml version="1.0" encoding="UTF-8"?>
<svg id="Layer_1" data-name="Layer 1" xmlns="http://www.w3.org/2000/svg" width="210" height="84" viewBox="0 0 210 84">
  <defs>
    <style>
      .cls-1 {
        fill: #e3721c;
      }

      .cls-1, .cls-2, .cls-3, .cls-4, .cls-5, .cls-6, .cls-7, .cls-8, .cls-9, .cls-10, .cls-11, .cls-12, .cls-13 {
        stroke-width: 0px;
      }

      .cls-2 {
        fill: #c14303;
      }

      .cls-3 {
        fill: #000;
      }

      .cls-4 {
        fill: #ee9c34;
      }

      .cls-5 {
        fill: #f3be26;
      }

      .cls-6 {
        fill: #e669a2;
      }

      .cls-7 {
        fill: #ad1b02;
      }

      .cls-8 {
        fill: #d85604;
      }

      .cls-9 {
        fill: #d1390d;
      }

      .cls-10 {
        fill: #c22303;
      }

      .cls-11 {
        fill: #f3bc87;
      }

      .cls-12 {
        fill: #e88d14;
      }

      .cls-13 {
        fill: #db4e18;
      }
    </style>
  </defs>
  <path id="path4061" class="cls-6" d="M141.16,39.23h-26.3v-6.73h26.3v6.73Z"/>
  <path id="path4103" class="cls-5" d="M137.74,39.23h-22.89v-16.84h22.89v16.84h0Z"/>
  <path id="path4089" class="cls-4" d="M128.28,39.23h-13.43V15.67h13.43v23.57Z"/>
  <path id="path4075" class="cls-11" d="M130.93,39.23h-16.07v-20.94h16.07v20.94Z"/>
  <path id="path4688" class="cls-1" d="M114.85,18.3v20.93h13.43v-20.93s-13.43,0-13.43,0Z"/>
  <path id="path4119" class="cls-7" d="M101.39,39.23h13.47v3.37h-13.47v-3.37h0Z"/>
  <path id="path4698" class="cls-12" d="M114.85,22.39v16.84h16.08v-16.84h-16.08Z"/>
  <path id="path4693" class="cls-8" d="M114.85,22.39v16.84h13.43v-16.84h-13.43Z"/>
  <path id="path4117" class="cls-2" d="M123.25,39.23h-8.4v-10.11h8.4v10.11h0Z"/>
  <path id="path4713" class="cls-13" d="M114.85,32.51v6.73h22.9v-6.73h-22.9Z"/>
  <path id="path4708" class="cls-9" d="M114.85,32.51v6.73h16.08v-6.73h-16.08Z"/>
  <path id="path4703" class="cls-10" d="M114.85,32.51v6.73h13.43v-6.73h-13.43Z"/>
  <path id="path4625" class="cls-7" d="M114.85,32.51v6.73h8.41v-6.73h-8.41Z"/>
  <g id="g2925">
    <path id="path2850" class="cls-3" d="M117.78,51.91c-2.29.41-3.51,2.14-3.51,5.14s1.63,5.09,4.02,5.09c1.17,0,2.19-.41,4.33-1.48v2.5c-2.6,1.22-4.12,1.53-6.16,1.53-2.29,0-3.92-.56-5.19-1.94-1.32-1.32-2.04-3.06-2.04-5.04,0-4.33,3.26-7.33,8-7.33,3.11,0,5.3,1.48,5.3,3.56,0,1.37-1.02,2.34-2.5,2.34-.76,0-1.37-.25-2.24-.71"/>
    <path id="path2852" class="cls-3" d="M106.32,57.72c2.09-2.6,2.85-3.67,2.85-4.94s-1.02-2.39-2.44-2.39c-.81,0-1.58.46-1.94.87v5.35l-3.41,4.58v-10.39h-3.26l-5.4,8.91v-8.91h-1.83l-4.94,1.12v1.27l2.7.25v11.05h3.41l5.19-8.56v8.56h3.82"/>
    <path id="path2862" class="cls-3" d="M75.62,62.76h.76c2.75,0,4.28-1.68,4.28-5.04,0-2.8-1.22-4.33-3.51-4.33-.31,0-.76.05-1.53.2v9.17h0ZM75.62,68.77l2.24.51v1.27h-8.81v-1.27l2.04-.51v-15.38h-2.24v-1.27l5.35-1.63h1.43v1.83c2.5-1.53,3.36-1.78,4.69-1.78,2.95,0,5.19,2.75,5.19,6.57,0,4.38-3,7.38-7.59,7.38-.51,0-1.37-.05-2.29-.1"/>
  </g>
</svg>