<?xml version="1.0" encoding="UTF-8"?>
<svg id="Layer_1" data-name="Layer 1" xmlns="http://www.w3.org/2000/svg" width="210" height="84" viewBox="0 0 210 84">
  <defs>
    <style>
      .cls-1 {
        fill: #573885;
        stroke-width: 0px;
      }
    </style>
  </defs>
  <path class="cls-1" d="M42.74,32.05c0-.97-.48-1.69-2.62-1.69s-2.62.72-2.62,1.69v2.62c0,.79.28,1.59,1.03,2.24l7.24,6.21c1.04.86,1.66,1.93,1.66,3.03v3.93c0,2.35-2.76,3.66-7.31,3.66-5.03,0-7.45-1.14-7.45-3.66v-3.41h4.55v3.27c0,1.17.9,1.86,2.89,1.86,1.86,0,2.76-.69,2.76-1.86v-3.48c0-.86-.34-1.52-1.31-2.38l-6.69-5.83c-1.24-1.07-1.93-1.9-1.93-3.17v-3c0-2.45,2.55-3.66,7.17-3.66,5.1,0,7.17,1.21,7.17,3.48v3.17h-4.55v-3.04Z"/>
  <path class="cls-1" d="M91.2,49.41c0,1.38.55,2.35,3.45,2.35s3.45-.97,3.45-2.35v-16.76c0-1.38-.55-2.34-3.45-2.34s-3.45.97-3.45,2.34v16.76ZM86.65,32.59c0-2.45,1.86-4.2,8-4.2s8,1.76,8,4.2v16.89c0,2.45-1.86,4.21-8,4.21s-8-1.76-8-4.21v-16.89Z"/>
  <path class="cls-1" d="M112.04,40.32c2.07,0,3.52-.28,3.52-1.55v-6.72c0-1.28-1.45-1.55-3.52-1.55h-2.2v9.83h2.2ZM105.28,28.56h7.24c5.86,0,7.59.96,7.59,3.79v6.1c0,2.83-1.73,3.79-7.59,3.79h-2.69v11.2h-4.55v-24.89Z"/>
  <path class="cls-1" d="M131.39,32.05c0-.97-.48-1.69-2.62-1.69s-2.62.72-2.62,1.69v2.62c0,.79.28,1.59,1.03,2.24l7.24,6.21c1.03.86,1.65,1.93,1.65,3.03v3.93c0,2.35-2.76,3.65-7.31,3.65-5.03,0-7.45-1.14-7.45-3.66v-3.41h4.55v3.27c0,1.17.9,1.86,2.9,1.86,1.86,0,2.76-.69,2.76-1.86v-3.48c0-.86-.34-1.52-1.31-2.38l-6.69-5.83c-1.24-1.07-1.93-1.9-1.93-3.17v-3c0-2.45,2.55-3.65,7.17-3.65,5.1,0,7.17,1.21,7.17,3.49v3.17h-4.55v-3.03Z"/>
  <path class="cls-1" d="M164.97,32.05c0-.97-.48-1.69-2.62-1.69s-2.62.72-2.62,1.69v2.62c0,.79.28,1.58,1.03,2.24l7.24,6.21c1.03.86,1.65,1.93,1.65,3.03v3.93c0,2.35-2.76,3.65-7.31,3.65-5.03,0-7.45-1.14-7.45-3.65v-3.41h4.55v3.27c0,1.17.9,1.86,2.9,1.86,1.86,0,2.76-.69,2.76-1.86v-3.48c0-.86-.34-1.52-1.31-2.38l-6.69-5.83c-1.24-1.07-1.93-1.89-1.93-3.17v-3c0-2.44,2.55-3.65,7.17-3.65,5.1,0,7.17,1.21,7.17,3.49v3.17h-4.55v-3.03Z"/>
  <path class="cls-1" d="M61.59,28.57h4.56l-9.97,31.24h-4.56l9.97-31.24Z"/>
  <path class="cls-1" d="M54.31,48.09l-6.17-19.35h4.56l3.89,12.2-2.28,7.15Z"/>
  <path class="cls-1" d="M150.08,28.57h4.56l-9.97,31.26h-4.56l9.97-31.26Z"/>
  <path class="cls-1" d="M142.97,47.93l-6.17-19.35h4.56l3.89,12.2-2.28,7.15Z"/>
  <path class="cls-1" d="M83.92,53.55h.02v-21.09c0-2.83-1.73-3.79-7.58-3.79h-8.78v24.89s4.55,0,4.55,0h0v-22.97h3.74c2.07,0,3.51.28,3.51,1.55v21.4h4.53Z"/>
  <path class="cls-1" d="M174.4,31.55c.43,0,.81-.03.81-.54,0-.42-.37-.49-.73-.49h-.69v1.03h.61ZM173.79,33.43h-.51v-3.34h1.27c.79,0,1.18.29,1.18.95,0,.6-.38.86-.87.92l.95,1.47h-.57l-.88-1.45h-.58v1.45ZM174.41,34.18c1.31,0,2.34-1.03,2.34-2.42s-1.03-2.41-2.34-2.41-2.36,1.03-2.36,2.41,1.03,2.42,2.36,2.42M171.46,31.75c0-1.66,1.35-2.89,2.95-2.89s2.92,1.23,2.92,2.89-1.35,2.91-2.92,2.91-2.95-1.23-2.95-2.91"/>
</svg>