<?xml version="1.0" encoding="UTF-8"?>
<svg id="Layer_1" data-name="Layer 1" xmlns="http://www.w3.org/2000/svg" width="210" height="84" viewBox="0 0 210 84">
  <defs>
    <style>
      .cls-1, .cls-2 {
        fill: #486aae;
        stroke-width: 0px;
      }

      .cls-2 {
        fill-rule: evenodd;
      }
    </style>
  </defs>
  <polygon class="cls-1" points="71.63 53.29 86.07 53.29 86.07 57.68 81.93 57.68 81.93 68.24 75.91 68.24 75.91 57.68 71.63 57.68 71.63 53.29"/>
  <polygon class="cls-1" points="93.38 59.33 90.34 68.24 84.56 68.24 90.23 53.29 96.5 53.29 102.3 68.24 96.45 68.24 93.38 59.33"/>
  <polygon class="cls-1" points="100.92 53.29 115.35 53.29 115.35 57.68 111.22 57.68 111.22 68.24 105.2 68.24 105.2 57.68 100.92 57.68 100.92 53.29"/>
  <polygon class="cls-1" points="122.67 59.33 119.63 68.24 113.85 68.24 119.52 53.29 125.79 53.29 131.59 68.24 125.74 68.24 122.67 59.33"/>
  <path class="cls-2" d="M122.88,25.83c-.54-1.06-1.25-2.08-2.13-3.03-1.98-2.14-4.78-3.92-8.1-5.15-3.34-1.24-7.15-1.89-11.02-1.89s-7.68.66-11.02,1.89c-3.31,1.23-6.11,3.01-8.1,5.15-.88.95-1.59,1.97-2.13,3.03,4.31-1.04,11.69-2.42,18.54-2.57.66-.01,1.12.2,1.42.58.36.46.34,2.11.33,2.85l-.19,19.06c.39.01.77.02,1.16.02s.78,0,1.17-.02l-.19-19.06c-.01-.74-.04-2.39.33-2.85.3-.38.75-.59,1.41-.58,6.85.14,14.22,1.52,18.54,2.56"/>
  <path class="cls-2" d="M123.8,28.31c-6.31-1.43-10.53-1.69-14.69-1.92-3.63-.2-3.67,1.09-3.31,3.57.02.15.05.34.09.56,1.22,7.2,2.73,13.4,2.99,14.45,8.84-2.02,15.21-7.62,15.21-14.2,0-.83-.1-1.65-.29-2.45"/>
  <path class="cls-2" d="M97.46,29.96c.36-2.47.32-3.77-3.31-3.57-4.16.23-8.38.49-14.69,1.92-.19.8-.29,1.63-.29,2.45,0,2.84,1.16,5.6,3.35,7.96,1.98,2.14,4.78,3.92,8.1,5.15,1.2.44,2.47.81,3.77,1.1.24-.99,1.79-7.31,3.02-14.65.02-.14.04-.27.06-.38"/>
</svg>