<?xml version="1.0" encoding="UTF-8"?>
<svg id="Layer_1" data-name="Layer 1" xmlns="http://www.w3.org/2000/svg" width="210" height="84" xmlns:xlink="http://www.w3.org/1999/xlink" viewBox="0 0 210 84">
  <defs>
    <style>
      .cls-1 {
        fill: url(#linear-gradient);
      }

      .cls-1, .cls-2, .cls-3, .cls-4, .cls-5, .cls-6, .cls-7, .cls-8, .cls-9, .cls-10 {
        stroke-width: 0px;
      }

      .cls-2 {
        fill: url(#linear-gradient-6);
      }

      .cls-3 {
        fill: url(#linear-gradient-5);
      }

      .cls-4 {
        fill: url(#linear-gradient-2);
      }

      .cls-5 {
        fill: #007dc5;
      }

      .cls-6 {
        fill: url(#linear-gradient-7);
      }

      .cls-7 {
        fill: url(#linear-gradient-3);
      }

      .cls-8 {
        fill: url(#linear-gradient-9);
      }

      .cls-9 {
        fill: url(#linear-gradient-8);
      }

      .cls-10 {
        fill: url(#linear-gradient-4);
      }
    </style>
    <linearGradient id="linear-gradient" x1="325.95" y1="8.81" x2="325.95" y2="-2.7" gradientTransform="translate(-291 30) scale(1 -1)" gradientUnits="userSpaceOnUse">
      <stop offset="0" stop-color="#ffc708"/>
      <stop offset="1" stop-color="#f05731"/>
      <stop offset="1" stop-color="#f05731"/>
    </linearGradient>
    <linearGradient id="linear-gradient-2" x1="332.27" y1="-.03" x2="329.26" y2="-21.8" gradientTransform="translate(-291 30) scale(1 -1)" gradientUnits="userSpaceOnUse">
      <stop offset="0" stop-color="#f80000"/>
      <stop offset="1" stop-color="#ee3984"/>
    </linearGradient>
    <linearGradient id="linear-gradient-3" x1="328.1" y1="-25.78" x2="343.85" y2="-20.78" gradientTransform="translate(-291 30) scale(1 -1)" gradientUnits="userSpaceOnUse">
      <stop offset="0" stop-color="#ee3984"/>
      <stop offset="1" stop-color="#7800da"/>
      <stop offset="1" stop-color="#7800da"/>
    </linearGradient>
    <linearGradient id="linear-gradient-4" x1="349.5" y1="-6.07" x2="355.26" y2="-26.37" gradientTransform="translate(-291 30) scale(1 -1)" gradientUnits="userSpaceOnUse">
      <stop offset="0" stop-color="red"/>
      <stop offset="1" stop-color="#ee3984"/>
      <stop offset="1" stop-color="#ee3984"/>
    </linearGradient>
    <linearGradient id="linear-gradient-5" x1="337.74" y1="-6.13" x2="363.14" y2="-6.13" gradientTransform="translate(-291 30) scale(1 -1)" gradientUnits="userSpaceOnUse">
      <stop offset="0" stop-color="#ffc708"/>
      <stop offset="1" stop-color="#fa3b00"/>
    </linearGradient>
    <linearGradient id="linear-gradient-6" x1="369.7" y1="-13.66" x2="387.25" y2="-13.66" gradientTransform="translate(-291 30) scale(1 -1)" gradientUnits="userSpaceOnUse">
      <stop offset="0" stop-color="red"/>
      <stop offset="1" stop-color="#ee3984"/>
    </linearGradient>
    <linearGradient id="linear-gradient-7" x1="383.86" y1="-22.13" x2="368.41" y2="-26.22" gradientTransform="translate(-291 30) scale(1 -1)" gradientUnits="userSpaceOnUse">
      <stop offset="0" stop-color="#ee3984"/>
      <stop offset="1" stop-color="#7800da"/>
    </linearGradient>
    <linearGradient id="linear-gradient-8" x1="371.62" y1="-3.87" x2="386.38" y2="-3.87" gradientTransform="translate(-291 30) scale(1 -1)" gradientUnits="userSpaceOnUse">
      <stop offset="0" stop-color="#ffc708"/>
      <stop offset="1" stop-color="#f05731"/>
      <stop offset="1" stop-color="#f05731"/>
    </linearGradient>
    <linearGradient id="linear-gradient-9" x1="352.27" y1="-22.73" x2="363.03" y2="-5.17" xlink:href="#linear-gradient-7"/>
  </defs>
  <g>
    <polygon class="cls-5" points="106.84 36.5 109.91 36.5 109.91 31.02 112.09 31.02 112.09 28.8 104.66 28.8 104.66 31.02 106.84 31.02 106.84 36.5"/>
    <polygon class="cls-5" points="114.36 36.5 115.93 31.9 117.49 36.5 120.5 36.5 117.55 28.8 114.3 28.8 111.36 36.5 114.36 36.5"/>
    <polygon class="cls-5" points="121.94 36.5 125.01 36.5 125.01 31.02 127.19 31.02 127.19 28.8 119.76 28.8 119.76 31.02 121.94 31.02 121.94 36.5"/>
    <polygon class="cls-5" points="129.46 36.5 131.03 31.9 132.59 36.5 135.6 36.5 132.65 28.8 129.4 28.8 126.46 36.5 129.46 36.5"/>
    <path class="cls-5" d="M158.95,42.01c.38.87.88,1.81,1.38,2.66l2.01,3.39h1.46v-7.7h-1.3v2.69c0,1.18.03,2.17.13,3.19h-.03c-.36-.83-.8-1.72-1.31-2.57l-1.99-3.3h-1.61v7.7h1.3v-2.75c0-1.26-.02-2.28-.07-3.28h.04Z"/>
    <path class="cls-5" d="M151.97,45.87h2.45l.7,2.18h1.51l-2.5-7.7h-1.79l-2.47,7.7h1.45l.65-2.18ZM152.8,42.91c.14-.46.25-.99.37-1.44h.02c.12.45.24.97.39,1.45l.61,1.9h-1.98l.6-1.9Z"/>
    <path class="cls-5" d="M129.05,47c-.72,0-1.41-.23-1.86-.49l-.31,1.17c.42.26,1.27.49,2.08.49,1.99,0,2.92-1.07,2.92-2.31,0-1.11-.64-1.78-1.98-2.29-1.03-.39-1.47-.67-1.47-1.26,0-.45.38-.93,1.27-.93.72,0,1.26.22,1.54.37l.34-1.13c-.4-.2-1.01-.38-1.85-.38-1.67,0-2.72.95-2.72,2.21,0,1.1.81,1.79,2.08,2.24.97.35,1.36.7,1.36,1.28,0,.63-.5,1.05-1.4,1.05Z"/>
    <path class="cls-5" d="M108.84,41.39c.63,0,1.14.14,1.5.3l.31-1.12c-.29-.16-.94-.34-1.86-.34-2.35,0-4.12,1.53-4.12,4.06,0,2.34,1.49,3.88,3.93,3.88.93,0,1.66-.18,2-.35l-.23-1.11c-.37.17-.96.28-1.54.28-1.69,0-2.68-1.07-2.68-2.77,0-1.85,1.13-2.83,2.7-2.83Z"/>
    <polygon class="cls-5" points="148.15 48.05 148.15 41.53 150.37 41.53 150.37 40.35 144.54 40.35 144.54 41.53 146.74 41.53 146.74 48.05 148.15 48.05"/>
    <path class="cls-5" d="M176.26,40.35l-.93,1.97c-.26.56-.48,1.04-.67,1.53h-.02c-.21-.52-.41-.96-.67-1.53l-.92-1.97h-1.61l2.44,4.49v3.2h1.41v-3.24l2.56-4.45h-1.59Z"/>
    <path class="cls-5" d="M114.72,40.23c-2.17,0-3.67,1.67-3.67,4.03s1.38,3.92,3.55,3.92h.01c2.11,0,3.67-1.48,3.67-4.05,0-2.2-1.33-3.9-3.57-3.9ZM114.67,47.05h-.01c-1.34,0-2.13-1.29-2.13-2.82,0-1.54.74-2.88,2.14-2.88s2.13,1.37,2.13,2.82c0,1.61-.77,2.88-2.13,2.88Z"/>
    <path class="cls-5" d="M169.19,41.39c.63,0,1.14.14,1.5.3l.31-1.12c-.29-.16-.94-.34-1.86-.34-2.35,0-4.12,1.53-4.12,4.06,0,2.34,1.49,3.88,3.93,3.88.93,0,1.66-.18,2-.35l-.23-1.11c-.37.17-.96.28-1.54.28-1.69,0-2.68-1.07-2.68-2.77,0-1.85,1.13-2.83,2.7-2.83Z"/>
    <polygon class="cls-5" points="142.16 40.35 140.75 40.35 140.75 48.05 145.32 48.05 145.32 46.87 142.16 46.87 142.16 40.35"/>
    <path class="cls-5" d="M139.15,44.75v-4.4h-1.41v4.49c0,1.51-.61,2.2-1.62,2.2-.95,0-1.58-.7-1.58-2.2v-4.49h-1.41v4.41c0,2.42,1.16,3.42,2.93,3.42,1.86,0,3.08-1.06,3.08-3.43Z"/>
    <path class="cls-5" d="M125.61,40.35h-1.3v2.69c0,1.18.03,2.17.13,3.19h-.03c-.36-.83-.8-1.72-1.31-2.57l-1.99-3.3h-1.61v7.7h1.3v-2.75c0-1.26-.02-2.28-.07-3.28h.04c.38.86.88,1.81,1.38,2.65l2.01,3.39h1.46v-7.7h0Z"/>
    <rect class="cls-5" x="130.22" y="51.9" width="1.41" height="7.7"/>
    <path class="cls-5" d="M120.55,55.99v-.03c.72-.26,1.39-.92,1.39-1.91,0-.65-.24-1.18-.66-1.53-.52-.43-1.4-.62-2.36-.62s-1.58.07-2.12.16v7.53h1.38v-3.14h.7c.79.02,1.16.34,1.38,1.34.21.95.4,1.58.51,1.8h1.43c-.15-.3-.36-1.17-.6-2.13-.19-.74-.51-1.27-1.07-1.48ZM119.02,55.43h-.83v-2.41c.14-.04.43-.07.87-.07.9,0,1.49.39,1.49,1.23,0,.76-.58,1.26-1.53,1.26Z"/>
    <path class="cls-5" d="M126.77,55.42c-.3.93-.58,1.87-.78,2.78h-.02c-.2-.93-.46-1.83-.75-2.8l-1.05-3.5h-1.53l2.49,7.7h1.61l2.66-7.7h-1.5l-1.12,3.52Z"/>
    <polygon class="cls-5" points="141.35 56.18 144.25 56.18 144.25 55.03 141.35 55.03 141.35 53.05 144.43 53.05 144.43 51.9 139.95 51.9 139.95 59.59 144.6 59.59 144.6 58.44 141.35 58.44 141.35 56.18"/>
    <path class="cls-5" d="M137.01,52.94c.63,0,1.14.14,1.5.3l.31-1.12c-.29-.16-.94-.34-1.86-.34-2.35,0-4.12,1.53-4.12,4.06,0,2.34,1.49,3.88,3.93,3.88.93,0,1.66-.18,2-.35l-.23-1.11c-.37.17-.96.28-1.54.28-1.69,0-2.68-1.07-2.68-2.77,0-1.85,1.13-2.83,2.7-2.83Z"/>
    <path class="cls-5" d="M107.68,55.11c-1.03-.39-1.47-.67-1.47-1.26,0-.45.38-.93,1.27-.93.72,0,1.26.22,1.54.37l.34-1.13c-.4-.2-1.01-.38-1.85-.38-1.67,0-2.72.95-2.72,2.21,0,1.1.81,1.79,2.08,2.24.97.35,1.36.7,1.36,1.28,0,.63-.5,1.05-1.4,1.05-.72,0-1.41-.23-1.86-.49l-.31,1.17c.42.26,1.27.49,2.08.49,1.99,0,2.92-1.07,2.92-2.31,0-1.11-.64-1.78-1.98-2.29Z"/>
    <polygon class="cls-5" points="112.33 56.18 115.23 56.18 115.23 55.03 112.33 55.03 112.33 53.05 115.41 53.05 115.41 51.9 110.92 51.9 110.92 59.59 115.58 59.59 115.58 58.44 112.33 58.44 112.33 56.18"/>
    <path class="cls-5" d="M148.51,55.11c-1.03-.39-1.47-.67-1.47-1.26,0-.45.38-.93,1.27-.93.72,0,1.26.22,1.54.37l.34-1.13c-.4-.2-1.01-.38-1.85-.38-1.67,0-2.72.95-2.72,2.21,0,1.1.81,1.79,2.08,2.24.97.35,1.36.7,1.36,1.28,0,.63-.5,1.05-1.4,1.05-.72,0-1.41-.23-1.86-.49l-.31,1.17c.42.26,1.27.49,2.08.49,1.99,0,2.92-1.07,2.92-2.31,0-1.11-.64-1.78-1.98-2.29Z"/>
  </g>
  <g>
    <path class="cls-1" d="M32.16,34.07c0-3.49,2.27-5.58,5.58-5.58v-5.93c0-1.74-1.16-2.91-2.79-2.91s-2.79,1.16-2.79,2.91v11.5Z"/>
    <path class="cls-4" d="M42.04,59.81c1.39,0,2.67-.23,3.83-.64-5.87.99-8.14-3.02-8.14-7.55v-18.59h6.8c1.57,0,2.61-.93,2.61-2.27s-1.05-2.27-2.61-2.27h-6.8c-3.31,0-5.58,2.09-5.58,5.58v15.98c0,6.39,3.66,9.76,9.88,9.76Z"/>
    <path class="cls-7" d="M45.87,59.17c2.32-.87,4.13-2.5,5.29-4.88l-2.61-4.71c-1.16,3.49-3.2,5.35-5.98,5.35s-4.82-1.69-4.82-5.52v2.21c0,4.53,2.27,8.54,8.14,7.55Z"/>
    <path class="cls-10" d="M69.75,58.24c-13.25,1.97-17.43-5.11-17.43-14.23,0-6.62,4.07-11.16,9.94-11.16,2.15,0,3.95.47,5.58,1.22.75.35,1.39.47,1.97.47,1.39,0,2.32-.93,2.32-2.32,0-.87-.52-1.74-1.74-2.32-2.21-1.1-5.06-1.74-8.14-1.74-9.18,0-15.51,6.51-15.51,15.98s6.1,15.75,15.92,15.75c2.68,0,5-.53,7.09-1.63Z"/>
    <path class="cls-3" d="M46.74,44.12c0-9.47,6.33-15.98,15.51-15.98,3.08,0,5.93.64,8.14,1.74,1.22.58,1.74,1.45,1.74,2.32,0,1.39-.93,2.32-2.32,2.32-.58,0-1.22-.12-1.97-.47-1.97-.93-3.89-1.22-5.58-1.22-8.08,0-15.52,5.11-15.52,11.27Z"/>
    <path class="cls-2" d="M81.43,30c-.52.52-.81,1.16-.81,1.92,0,1.92,1.8,4.76,5.98,7.67l4.76,3.31c3.49,2.44,4.88,4.76,4.88,8.25,0,2.5-.99,4.65-2.61,6.16.58-.52.93-1.22.93-2.15,0-2.03-2.03-5.23-6.39-8.25l-4.36-3.02c-3.66-2.56-5.11-4.94-5.11-8.19,0-1.92.7-3.66,1.86-4.94.29-.29.58-.53.87-.76Z"/>
    <path class="cls-6" d="M77.66,56.09c0,.93.47,1.69,1.69,2.27,1.69.81,4.42,1.51,6.86,1.51,3.08,0,5.64-.93,7.44-2.56.58-.52.93-1.22.93-2.15,0-2.03-2.03-5.23-6.39-8.25,1.97,1.39,2.79,2.56,2.79,4.24,0,2.5-1.97,4.18-4.82,4.18s-5.06-1.39-6.33-1.39-2.15.87-2.15,2.15Z"/>
    <path class="cls-9" d="M86.6,39.59c-1.86-1.34-2.67-2.56-2.67-4.01,0-1.86,1.51-3.02,3.66-3.02,2.73,0,4.01,1.28,5.64,1.28,1.28,0,2.15-.87,2.15-2.15,0-.93-.47-1.69-1.69-2.27-1.92-.93-4.01-1.28-6.28-1.28-2.38,0-4.47.7-5.98,1.86-.52.52-.81,1.16-.81,1.92,0,1.92,1.8,4.76,5.99,7.67Z"/>
    <path class="cls-8" d="M52.32,44.01c0,9.12,4.18,16.21,17.43,14.23,4.24-2.21,7.26-6.68,9.35-13.54l1.22-4.01c-1.16-1.51-1.63-3.2-1.63-5,0-1.92.7-3.66,1.86-4.94-1.74,1.86-3.2,4.59-4.36,8.42l-1.34,4.42c-2.38,7.79-6.16,11.5-12.03,11.5-6.45,0-10.52-4.47-10.52-11.1Z"/>
  </g>
</svg>